<mxfile host="app.diagrams.net" agent="Mozilla/5.0 (X11; Linux x86_64; rv:140.0) Gecko/20100101 Firefox/140.0" version="28.0.7">
  <diagram name="Page-1" id="4087-tiF2htS40PXVByX">
    <mxGraphModel dx="1741" dy="999" grid="1" gridSize="10" guides="1" tooltips="1" connect="1" arrows="1" fold="1" page="1" pageScale="1" pageWidth="1169" pageHeight="827" math="0" shadow="0">
      <root>
        <mxCell id="0" />
        <mxCell id="1" parent="0" />
        <mxCell id="Tqy93So4MoUHIPBnY-5U-1" value="" style="rounded=0;whiteSpace=wrap;html=1;fillColor=#dae8fc;strokeColor=#6c8ebf;container=0;" parent="1" vertex="1">
          <mxGeometry x="40" y="90" width="1480" height="260" as="geometry" />
        </mxCell>
        <mxCell id="tnhIsLXUUWxpaCLOrSYH-76" value="" style="rounded=0;whiteSpace=wrap;html=1;align=center;verticalAlign=middle;spacingLeft=4;spacingRight=4;fontFamily=Courier New;fontSize=12;fontStyle=0;horizontal=1;fillColor=#d5e8d4;strokeColor=#82b366;" parent="1" vertex="1">
          <mxGeometry x="40" y="350" width="1480" height="410" as="geometry" />
        </mxCell>
        <mxCell id="tnhIsLXUUWxpaCLOrSYH-41" value="" style="rounded=0;whiteSpace=wrap;html=1;align=center;verticalAlign=middle;spacingLeft=4;spacingRight=4;fontFamily=Courier New;fontSize=12;fontStyle=0;horizontal=1;fillColor=#ffe6cc;strokeColor=#d79b00;" parent="1" vertex="1">
          <mxGeometry x="50" y="451" width="1460" height="309" as="geometry" />
        </mxCell>
        <mxCell id="tnhIsLXUUWxpaCLOrSYH-244" value="" style="group" parent="1" vertex="1" connectable="0">
          <mxGeometry x="48" y="210" width="202" height="470" as="geometry" />
        </mxCell>
        <mxCell id="tnhIsLXUUWxpaCLOrSYH-211" value="" style="rounded=0;whiteSpace=wrap;html=1;align=center;verticalAlign=middle;spacingLeft=4;spacingRight=4;fontFamily=Courier New;fontSize=12;fontStyle=0;horizontal=1;fillColor=#fad9d5;strokeColor=none;opacity=50;" parent="tnhIsLXUUWxpaCLOrSYH-244" vertex="1">
          <mxGeometry x="132" width="68" height="275" as="geometry" />
        </mxCell>
        <mxCell id="tnhIsLXUUWxpaCLOrSYH-219" value="" style="rounded=0;whiteSpace=wrap;html=1;align=center;verticalAlign=middle;spacingLeft=4;spacingRight=4;fontFamily=Courier New;fontSize=12;fontStyle=0;horizontal=1;fillColor=#fad9d5;strokeColor=none;opacity=50;" parent="tnhIsLXUUWxpaCLOrSYH-244" vertex="1">
          <mxGeometry y="206" width="132" height="69" as="geometry" />
        </mxCell>
        <mxCell id="tnhIsLXUUWxpaCLOrSYH-220" value="" style="rounded=0;whiteSpace=wrap;html=1;align=center;verticalAlign=middle;spacingLeft=4;spacingRight=4;fontFamily=Courier New;fontSize=12;fontStyle=0;horizontal=1;fillColor=#fad9d5;strokeColor=none;opacity=50;" parent="tnhIsLXUUWxpaCLOrSYH-244" vertex="1">
          <mxGeometry x="54" y="180" width="78" height="26" as="geometry" />
        </mxCell>
        <mxCell id="tnhIsLXUUWxpaCLOrSYH-212" value="" style="rounded=0;whiteSpace=wrap;html=1;align=center;verticalAlign=middle;spacingLeft=4;spacingRight=4;fontFamily=Courier New;fontSize=12;fontStyle=0;horizontal=1;fillColor=#fad9d5;strokeColor=none;opacity=50;" parent="tnhIsLXUUWxpaCLOrSYH-244" vertex="1">
          <mxGeometry x="24" y="275" width="176" height="95" as="geometry" />
        </mxCell>
        <mxCell id="tnhIsLXUUWxpaCLOrSYH-213" value="" style="rounded=0;whiteSpace=wrap;html=1;align=center;verticalAlign=middle;spacingLeft=4;spacingRight=4;fontFamily=Courier New;fontSize=12;fontStyle=0;horizontal=1;fillColor=#fad9d5;strokeColor=none;opacity=50;" parent="tnhIsLXUUWxpaCLOrSYH-244" vertex="1">
          <mxGeometry x="62" y="370" width="140" height="100" as="geometry" />
        </mxCell>
        <mxCell id="tnhIsLXUUWxpaCLOrSYH-215" value="" style="rounded=0;whiteSpace=wrap;html=1;align=center;verticalAlign=middle;spacingLeft=4;spacingRight=4;fontFamily=Courier New;fontSize=12;fontStyle=0;horizontal=1;fillColor=#fad9d5;strokeColor=none;opacity=50;" parent="tnhIsLXUUWxpaCLOrSYH-244" vertex="1">
          <mxGeometry x="62" width="70" height="60" as="geometry" />
        </mxCell>
        <mxCell id="tnhIsLXUUWxpaCLOrSYH-240" value="" style="group" parent="1" vertex="1" connectable="0">
          <mxGeometry x="1070" y="94" width="430" height="440" as="geometry" />
        </mxCell>
        <mxCell id="tnhIsLXUUWxpaCLOrSYH-241" value="" style="group" parent="tnhIsLXUUWxpaCLOrSYH-240" vertex="1" connectable="0">
          <mxGeometry width="430" height="440" as="geometry" />
        </mxCell>
        <mxCell id="tnhIsLXUUWxpaCLOrSYH-234" value="" style="rounded=0;whiteSpace=wrap;html=1;align=center;verticalAlign=middle;spacingLeft=4;spacingRight=4;fontFamily=Courier New;fontSize=12;fontStyle=0;horizontal=1;fillColor=#b0e3e6;strokeWidth=0;perimeterSpacing=1;strokeColor=#0e8088;opacity=60;" parent="tnhIsLXUUWxpaCLOrSYH-241" vertex="1">
          <mxGeometry x="20" width="410" height="350" as="geometry" />
        </mxCell>
        <mxCell id="tnhIsLXUUWxpaCLOrSYH-235" value="" style="rounded=0;whiteSpace=wrap;html=1;align=center;verticalAlign=middle;spacingLeft=4;spacingRight=4;fontFamily=Courier New;fontSize=12;fontStyle=0;horizontal=1;fillColor=#b0e3e6;strokeWidth=0;perimeterSpacing=1;strokeColor=#0e8088;opacity=60;" parent="tnhIsLXUUWxpaCLOrSYH-241" vertex="1">
          <mxGeometry y="350" width="340" height="90" as="geometry" />
        </mxCell>
        <mxCell id="tnhIsLXUUWxpaCLOrSYH-242" value="" style="group;opacity=10;" parent="1" vertex="1" connectable="0">
          <mxGeometry x="600" y="104" width="470" height="426" as="geometry" />
        </mxCell>
        <mxCell id="tnhIsLXUUWxpaCLOrSYH-223" value="" style="rounded=0;whiteSpace=wrap;html=1;align=center;verticalAlign=middle;spacingLeft=4;spacingRight=4;fontFamily=Courier New;fontSize=12;fontStyle=0;horizontal=1;fillColor=#d0cee2;strokeWidth=0;perimeterSpacing=1;strokeColor=#56517e;opacity=50;" parent="tnhIsLXUUWxpaCLOrSYH-242" vertex="1">
          <mxGeometry x="50" width="390" height="326" as="geometry" />
        </mxCell>
        <mxCell id="tnhIsLXUUWxpaCLOrSYH-225" value="" style="rounded=0;whiteSpace=wrap;html=1;align=center;verticalAlign=middle;spacingLeft=4;spacingRight=4;fontFamily=Courier New;fontSize=12;fontStyle=0;horizontal=1;fillColor=#d0cee2;strokeWidth=0;perimeterSpacing=1;strokeColor=#56517e;opacity=50;" parent="tnhIsLXUUWxpaCLOrSYH-242" vertex="1">
          <mxGeometry y="206" width="49.53" height="70" as="geometry" />
        </mxCell>
        <mxCell id="tnhIsLXUUWxpaCLOrSYH-226" value="" style="rounded=0;whiteSpace=wrap;html=1;align=center;verticalAlign=middle;spacingLeft=4;spacingRight=4;fontFamily=Courier New;fontSize=12;fontStyle=0;horizontal=1;fillColor=#d0cee2;strokeWidth=0;perimeterSpacing=1;strokeColor=#56517e;opacity=50;" parent="tnhIsLXUUWxpaCLOrSYH-242" vertex="1">
          <mxGeometry x="207.24" y="326" width="134.76" height="100" as="geometry" />
        </mxCell>
        <mxCell id="tnhIsLXUUWxpaCLOrSYH-227" value="" style="rounded=0;whiteSpace=wrap;html=1;align=center;verticalAlign=middle;spacingLeft=4;spacingRight=4;fontFamily=Courier New;fontSize=12;fontStyle=0;horizontal=1;fillColor=#d0cee2;strokeWidth=0;perimeterSpacing=1;strokeColor=#56517e;opacity=50;" parent="tnhIsLXUUWxpaCLOrSYH-242" vertex="1">
          <mxGeometry x="440" y="81" width="30" height="70" as="geometry" />
        </mxCell>
        <mxCell id="tnhIsLXUUWxpaCLOrSYH-239" value="" style="group;opacity=60;" parent="1" vertex="1" connectable="0">
          <mxGeometry x="250" y="230" width="480" height="370" as="geometry" />
        </mxCell>
        <mxCell id="tnhIsLXUUWxpaCLOrSYH-206" value="" style="rounded=0;whiteSpace=wrap;html=1;align=center;verticalAlign=middle;spacingLeft=4;spacingRight=4;fontFamily=Courier New;fontSize=12;fontStyle=0;horizontal=1;fillColor=#fad7ac;strokeColor=none;opacity=50;" parent="tnhIsLXUUWxpaCLOrSYH-239" vertex="1">
          <mxGeometry y="209" width="190" height="161" as="geometry" />
        </mxCell>
        <mxCell id="tnhIsLXUUWxpaCLOrSYH-204" value="" style="rounded=0;whiteSpace=wrap;html=1;align=center;verticalAlign=middle;spacingLeft=4;spacingRight=4;fontFamily=Courier New;fontSize=12;fontStyle=0;horizontal=1;fillColor=#fad7ac;strokeColor=none;opacity=50;" parent="tnhIsLXUUWxpaCLOrSYH-239" vertex="1">
          <mxGeometry x="190" y="210" width="290" height="120" as="geometry" />
        </mxCell>
        <mxCell id="tnhIsLXUUWxpaCLOrSYH-203" value="" style="rounded=0;whiteSpace=wrap;html=1;align=center;verticalAlign=middle;spacingLeft=4;spacingRight=4;fontFamily=Courier New;fontSize=12;fontStyle=0;horizontal=1;fillColor=#fad7ac;strokeWidth=0;perimeterSpacing=1;strokeColor=#b46504;opacity=50;" parent="tnhIsLXUUWxpaCLOrSYH-239" vertex="1">
          <mxGeometry width="290" height="210" as="geometry" />
        </mxCell>
        <mxCell id="tnhIsLXUUWxpaCLOrSYH-207" value="" style="rounded=0;whiteSpace=wrap;html=1;align=center;verticalAlign=middle;spacingLeft=4;spacingRight=4;fontFamily=Courier New;fontSize=12;fontStyle=0;horizontal=1;fillColor=#fad7ac;strokeColor=none;opacity=50;" parent="tnhIsLXUUWxpaCLOrSYH-239" vertex="1">
          <mxGeometry x="289.53" width="60.47" height="60" as="geometry" />
        </mxCell>
        <mxCell id="tnhIsLXUUWxpaCLOrSYH-210" value="" style="rounded=0;whiteSpace=wrap;html=1;align=center;verticalAlign=middle;spacingLeft=4;spacingRight=4;fontFamily=Courier New;fontSize=12;fontStyle=0;horizontal=1;fillColor=#fad7ac;strokeColor=none;opacity=50;" parent="tnhIsLXUUWxpaCLOrSYH-239" vertex="1">
          <mxGeometry x="289.53" y="151" width="30.47" height="59" as="geometry" />
        </mxCell>
        <mxCell id="tnhIsLXUUWxpaCLOrSYH-197" value="" style="endArrow=classic;html=1;rounded=0;fontFamily=Courier New;fontSize=12;fontColor=default;fontStyle=0;horizontal=1;edgeStyle=orthogonalEdgeStyle;curved=1;dashed=1;flowAnimation=1;" parent="1" target="tnhIsLXUUWxpaCLOrSYH-192" edge="1">
          <mxGeometry width="50" height="50" relative="1" as="geometry">
            <mxPoint x="1380" y="270" as="sourcePoint" />
            <mxPoint x="1280" y="250" as="targetPoint" />
            <Array as="points">
              <mxPoint x="1380" y="220" />
              <mxPoint x="1310" y="220" />
              <mxPoint x="1310" y="160" />
            </Array>
          </mxGeometry>
        </mxCell>
        <mxCell id="tnhIsLXUUWxpaCLOrSYH-159" value="" style="rounded=0;whiteSpace=wrap;html=1;align=center;verticalAlign=middle;spacingLeft=4;spacingRight=4;fontFamily=Courier New;fontSize=12;fontColor=#333333;fontStyle=0;horizontal=1;fillColor=#f5f5f5;strokeColor=#666666;" parent="1" vertex="1">
          <mxGeometry x="40" y="10" width="320" height="80" as="geometry" />
        </mxCell>
        <mxCell id="tnhIsLXUUWxpaCLOrSYH-1" value="&lt;div&gt;&lt;font style=&quot;font-size: 18px;&quot;&gt;&lt;b&gt;Operator / PC&lt;/b&gt;&lt;/font&gt;&lt;/div&gt;&lt;div&gt;&lt;b&gt;&lt;br&gt;&lt;/b&gt;&lt;/div&gt;&lt;div align=&quot;left&quot;&gt;&lt;span style=&quot;background-color: light-dark(#ffffff, var(--ge-dark-color, #121212));&quot;&gt;&lt;i&gt;namespace:&lt;/i&gt;&lt;/span&gt;&lt;br&gt;&lt;span style=&quot;background-color: light-dark(#ffffff, var(--ge-dark-color, #121212));&quot;&gt;&amp;lt;name&amp;gt;_opr/&lt;/span&gt;&lt;/div&gt;" style="text;html=1;align=center;verticalAlign=middle;whiteSpace=wrap;rounded=0;fontFamily=Courier New;container=0;" parent="1" vertex="1">
          <mxGeometry x="50" y="114" width="150" height="40" as="geometry" />
        </mxCell>
        <mxCell id="tnhIsLXUUWxpaCLOrSYH-10" style="edgeStyle=orthogonalEdgeStyle;rounded=0;orthogonalLoop=1;jettySize=auto;html=1;exitX=0.997;exitY=0.358;exitDx=0;exitDy=0;entryX=0;entryY=0.25;entryDx=0;entryDy=0;fontFamily=Courier New;fontSize=12;fontColor=default;fontStyle=0;horizontal=1;exitPerimeter=0;endArrow=classic;endFill=1;flowAnimation=0;strokeWidth=2;" parent="1" source="tnhIsLXUUWxpaCLOrSYH-2" target="tnhIsLXUUWxpaCLOrSYH-6" edge="1">
          <mxGeometry relative="1" as="geometry">
            <Array as="points" />
          </mxGeometry>
        </mxCell>
        <mxCell id="tnhIsLXUUWxpaCLOrSYH-11" value="&lt;font style=&quot;background-color: rgb(248, 206, 204);&quot; face=&quot;Courier New&quot;&gt;begin_operation&lt;/font&gt;" style="edgeLabel;html=1;align=center;verticalAlign=middle;resizable=0;points=[];rounded=0;shadow=0;glass=0;fillStyle=hatch;strokeColor=#9673a6;swimlaneFillColor=none;fontFamily=Courier New;fontSize=12;fontColor=default;fontStyle=0;horizontal=1;fillColor=#e1d5e7;labelBackgroundColor=default;container=0;" parent="tnhIsLXUUWxpaCLOrSYH-10" vertex="1" connectable="0">
          <mxGeometry x="0.3773" y="-1" relative="1" as="geometry">
            <mxPoint x="-28" as="offset" />
          </mxGeometry>
        </mxCell>
        <mxCell id="tnhIsLXUUWxpaCLOrSYH-2" value="&lt;a href=&quot;https://github.com/Bento-Robotics/Bento-PC&quot;&gt;Bento-PC&lt;/a&gt;" style="swimlane;fontStyle=0;childLayout=stackLayout;horizontal=1;startSize=30;horizontalStack=0;resizeParent=1;resizeParentMax=0;resizeLast=0;collapsible=1;marginBottom=0;whiteSpace=wrap;html=1;fontFamily=Courier New;rounded=0;glass=0;shadow=0;swimlaneLine=1;swimlaneFillColor=none;fillColor=#C3ABD0;strokeColor=#9673a6;fillStyle=zigzag-line;container=0;" parent="1" vertex="1">
          <mxGeometry x="220" y="120" width="120" height="70" as="geometry" />
        </mxCell>
        <mxCell id="tnhIsLXUUWxpaCLOrSYH-5" value="&lt;div align=&quot;center&quot;&gt;&lt;font face=&quot;Courier New&quot;&gt;bash shell einrichten&lt;/font&gt;&lt;/div&gt;" style="text;strokeColor=none;fillColor=none;align=center;verticalAlign=middle;spacingLeft=4;spacingRight=4;overflow=hidden;points=[[0,0.5],[1,0.5]];portConstraint=eastwest;rotatable=0;whiteSpace=wrap;html=1;container=0;" parent="tnhIsLXUUWxpaCLOrSYH-2" vertex="1">
          <mxGeometry y="30" width="120" height="40" as="geometry" />
        </mxCell>
        <mxCell id="tnhIsLXUUWxpaCLOrSYH-12" value="&lt;a href=&quot;https://github.com/Bento-Robotics/bento_teleop&quot;&gt;bento_teleop&lt;/a&gt;" style="swimlane;fontStyle=0;childLayout=stackLayout;horizontal=1;startSize=30;horizontalStack=0;resizeParent=1;resizeParentMax=0;resizeLast=0;collapsible=1;marginBottom=0;whiteSpace=wrap;html=1;rounded=0;shadow=0;glass=0;fillStyle=dots;strokeColor=#9673a6;align=center;verticalAlign=middle;swimlaneFillColor=none;fontFamily=Courier New;fontSize=12;fillColor=#C3ABD0;container=0;" parent="1" vertex="1">
          <mxGeometry x="190" y="240" width="170" height="80" as="geometry" />
        </mxCell>
        <mxCell id="tnhIsLXUUWxpaCLOrSYH-13" value="&lt;span class=&quot;nodeLabel&quot;&gt;Steuerbefehle aus Joystick gewinnen und senden&lt;/span&gt;" style="text;strokeColor=none;fillColor=none;align=center;verticalAlign=middle;spacingLeft=4;spacingRight=4;overflow=hidden;points=[[0,0.5],[1,0.5]];portConstraint=eastwest;rotatable=0;whiteSpace=wrap;html=1;fontFamily=Courier New;fontSize=12;fontColor=default;fontStyle=0;horizontal=1;container=0;" parent="tnhIsLXUUWxpaCLOrSYH-12" vertex="1">
          <mxGeometry y="30" width="170" height="50" as="geometry" />
        </mxCell>
        <mxCell id="tnhIsLXUUWxpaCLOrSYH-16" value="&lt;a href=&quot;https://index.ros.org/p/joy_linux/&quot;&gt;joy_linux&lt;/a&gt;" style="swimlane;fontStyle=0;childLayout=stackLayout;horizontal=1;startSize=30;horizontalStack=0;resizeParent=1;resizeParentMax=0;resizeLast=0;collapsible=1;marginBottom=0;whiteSpace=wrap;html=1;rounded=0;shadow=0;glass=0;fillStyle=dots;strokeColor=#9673a6;align=center;verticalAlign=middle;swimlaneFillColor=none;fontFamily=Courier New;fontSize=12;fillColor=#C3ABD0;container=0;" parent="1" vertex="1">
          <mxGeometry x="370" y="240" width="140" height="60" as="geometry" />
        </mxCell>
        <mxCell id="tnhIsLXUUWxpaCLOrSYH-17" value="J&lt;span class=&quot;nodeLabel&quot;&gt;oystick Publisher&lt;/span&gt;" style="text;strokeColor=none;fillColor=none;align=center;verticalAlign=middle;spacingLeft=4;spacingRight=4;overflow=hidden;points=[[0,0.5],[1,0.5]];portConstraint=eastwest;rotatable=0;whiteSpace=wrap;html=1;fontFamily=Courier New;fontSize=12;fontColor=default;fontStyle=0;horizontal=1;container=0;" parent="tnhIsLXUUWxpaCLOrSYH-16" vertex="1">
          <mxGeometry y="30" width="140" height="30" as="geometry" />
        </mxCell>
        <mxCell id="tnhIsLXUUWxpaCLOrSYH-24" value="&lt;a href=&quot;https://index.ros.org/p/image_transport/&quot;&gt;image_transport republish&lt;/a&gt;" style="swimlane;fontStyle=0;childLayout=stackLayout;horizontal=1;startSize=30;horizontalStack=0;resizeParent=1;resizeParentMax=0;resizeLast=0;collapsible=1;marginBottom=0;whiteSpace=wrap;html=1;rounded=0;shadow=0;glass=0;fillStyle=dots;strokeColor=#9673a6;align=center;verticalAlign=middle;swimlaneFillColor=none;fontFamily=Courier New;fontSize=12;fillColor=#C3ABD0;container=0;" parent="1" vertex="1">
          <mxGeometry x="680" y="250" width="170" height="60" as="geometry" />
        </mxCell>
        <mxCell id="tnhIsLXUUWxpaCLOrSYH-25" value="&lt;span class=&quot;nodeLabel&quot;&gt;Bild für Verarbeitung entkomprimieren&lt;/span&gt;" style="text;strokeColor=none;fillColor=none;align=center;verticalAlign=middle;spacingLeft=4;spacingRight=4;overflow=hidden;points=[[0,0.5],[1,0.5]];portConstraint=eastwest;rotatable=0;whiteSpace=wrap;html=1;fontFamily=Courier New;fontSize=12;fontColor=default;fontStyle=0;horizontal=1;container=0;" parent="tnhIsLXUUWxpaCLOrSYH-24" vertex="1">
          <mxGeometry y="30" width="170" height="30" as="geometry" />
        </mxCell>
        <mxCell id="tnhIsLXUUWxpaCLOrSYH-29" value="&lt;a href=&quot;https://github.com/bento-Robotics/TunnelVision&quot;&gt;TunnelVision&lt;/a&gt;" style="swimlane;fontStyle=0;childLayout=stackLayout;horizontal=1;startSize=30;horizontalStack=0;resizeParent=1;resizeParentMax=0;resizeLast=0;collapsible=1;marginBottom=0;whiteSpace=wrap;html=1;rounded=0;shadow=0;glass=0;fillStyle=dots;strokeColor=#9673a6;align=center;verticalAlign=middle;swimlaneFillColor=none;fontFamily=Courier New;fontSize=12;fillColor=#C3ABD0;container=0;" parent="1" vertex="1">
          <mxGeometry x="890" y="129" width="140" height="60" as="geometry" />
        </mxCell>
        <mxCell id="tnhIsLXUUWxpaCLOrSYH-30" value="&lt;span class=&quot;nodeLabel&quot;&gt;QR Inhalt Ausgabe&lt;br&gt;&amp;amp; anti-Duplikate&lt;/span&gt;" style="text;strokeColor=none;fillColor=none;align=center;verticalAlign=middle;spacingLeft=4;spacingRight=4;overflow=hidden;points=[[0,0.5],[1,0.5]];portConstraint=eastwest;rotatable=0;whiteSpace=wrap;html=1;fontFamily=Courier New;fontSize=12;fontColor=default;fontStyle=0;horizontal=1;container=0;" parent="tnhIsLXUUWxpaCLOrSYH-29" vertex="1">
          <mxGeometry y="30" width="140" height="30" as="geometry" />
        </mxCell>
        <mxCell id="tnhIsLXUUWxpaCLOrSYH-31" value="&lt;a href=&quot;https://index.ros.org/p/rqt/&quot;&gt;rqt&lt;/a&gt;" style="swimlane;fontStyle=0;childLayout=stackLayout;horizontal=1;startSize=30;horizontalStack=0;resizeParent=1;resizeParentMax=0;resizeLast=0;collapsible=1;marginBottom=0;whiteSpace=wrap;html=1;rounded=0;shadow=0;glass=0;fillStyle=dots;strokeColor=#9673a6;align=center;verticalAlign=middle;swimlaneFillColor=none;fontFamily=Courier New;fontSize=12;fillColor=#C3ABD0;container=0;" parent="1" vertex="1">
          <mxGeometry x="890" y="250" width="140" height="60" as="geometry" />
        </mxCell>
        <mxCell id="tnhIsLXUUWxpaCLOrSYH-32" value="Kameras anzeigen" style="text;strokeColor=none;fillColor=none;align=center;verticalAlign=middle;spacingLeft=4;spacingRight=4;overflow=hidden;points=[[0,0.5],[1,0.5]];portConstraint=eastwest;rotatable=0;whiteSpace=wrap;html=1;fontFamily=Courier New;fontSize=12;fontColor=default;fontStyle=0;horizontal=1;container=0;" parent="tnhIsLXUUWxpaCLOrSYH-31" vertex="1">
          <mxGeometry y="30" width="140" height="30" as="geometry" />
        </mxCell>
        <mxCell id="tnhIsLXUUWxpaCLOrSYH-34" value="" style="endArrow=classic;html=1;rounded=0;fontFamily=Courier New;fontSize=12;fontColor=default;fontStyle=0;horizontal=1;edgeStyle=orthogonalEdgeStyle;" parent="1" source="tnhIsLXUUWxpaCLOrSYH-6" target="tnhIsLXUUWxpaCLOrSYH-16" edge="1">
          <mxGeometry width="50" height="50" relative="1" as="geometry">
            <mxPoint x="510" y="240" as="sourcePoint" />
            <mxPoint x="560" y="190" as="targetPoint" />
            <Array as="points">
              <mxPoint x="530" y="210" />
              <mxPoint x="440" y="210" />
            </Array>
          </mxGeometry>
        </mxCell>
        <mxCell id="tnhIsLXUUWxpaCLOrSYH-35" value="" style="endArrow=classic;html=1;rounded=0;fontFamily=Courier New;fontSize=12;fontColor=default;fontStyle=0;horizontal=1;edgeStyle=orthogonalEdgeStyle;" parent="1" source="tnhIsLXUUWxpaCLOrSYH-6" target="tnhIsLXUUWxpaCLOrSYH-24" edge="1">
          <mxGeometry width="50" height="50" relative="1" as="geometry">
            <mxPoint x="510" y="240" as="sourcePoint" />
            <mxPoint x="560" y="190" as="targetPoint" />
            <Array as="points">
              <mxPoint x="540" y="220" />
              <mxPoint x="830" y="220" />
            </Array>
          </mxGeometry>
        </mxCell>
        <mxCell id="tnhIsLXUUWxpaCLOrSYH-36" value="" style="endArrow=classic;html=1;rounded=0;fontFamily=Courier New;fontSize=12;fontColor=default;fontStyle=0;horizontal=1;edgeStyle=orthogonalEdgeStyle;" parent="1" source="tnhIsLXUUWxpaCLOrSYH-6" target="tnhIsLXUUWxpaCLOrSYH-26" edge="1">
          <mxGeometry width="50" height="50" relative="1" as="geometry">
            <mxPoint x="510" y="240" as="sourcePoint" />
            <mxPoint x="560" y="190" as="targetPoint" />
            <Array as="points">
              <mxPoint x="570" y="220" />
              <mxPoint x="830" y="220" />
            </Array>
          </mxGeometry>
        </mxCell>
        <mxCell id="tnhIsLXUUWxpaCLOrSYH-37" value="" style="endArrow=classic;html=1;rounded=0;fontFamily=Courier New;fontSize=12;fontColor=default;fontStyle=0;horizontal=1;edgeStyle=orthogonalEdgeStyle;" parent="1" source="tnhIsLXUUWxpaCLOrSYH-6" target="tnhIsLXUUWxpaCLOrSYH-29" edge="1">
          <mxGeometry width="50" height="50" relative="1" as="geometry">
            <mxPoint x="660" y="240" as="sourcePoint" />
            <mxPoint x="710" y="190" as="targetPoint" />
            <Array as="points">
              <mxPoint x="560" y="220" />
              <mxPoint x="900" y="220" />
            </Array>
          </mxGeometry>
        </mxCell>
        <mxCell id="tnhIsLXUUWxpaCLOrSYH-38" value="" style="endArrow=classic;html=1;rounded=0;fontFamily=Courier New;fontSize=12;fontColor=default;fontStyle=0;horizontal=1;edgeStyle=orthogonalEdgeStyle;" parent="1" source="tnhIsLXUUWxpaCLOrSYH-6" target="tnhIsLXUUWxpaCLOrSYH-31" edge="1">
          <mxGeometry width="50" height="50" relative="1" as="geometry">
            <mxPoint x="660" y="240" as="sourcePoint" />
            <mxPoint x="710" y="190" as="targetPoint" />
            <Array as="points">
              <mxPoint x="550" y="220" />
              <mxPoint x="900" y="220" />
            </Array>
          </mxGeometry>
        </mxCell>
        <mxCell id="tnhIsLXUUWxpaCLOrSYH-33" style="edgeStyle=orthogonalEdgeStyle;rounded=0;orthogonalLoop=1;jettySize=auto;html=1;fontFamily=Courier New;fontSize=12;fontColor=default;fontStyle=0;horizontal=1;" parent="1" source="tnhIsLXUUWxpaCLOrSYH-6" target="tnhIsLXUUWxpaCLOrSYH-12" edge="1">
          <mxGeometry relative="1" as="geometry">
            <Array as="points">
              <mxPoint x="520" y="210" />
              <mxPoint x="280" y="210" />
            </Array>
          </mxGeometry>
        </mxCell>
        <mxCell id="tnhIsLXUUWxpaCLOrSYH-6" value="&lt;div&gt;Operator container&lt;/div&gt;&lt;div&gt;&lt;i&gt;&lt;a href=&quot;https://github.com/Bento-Robotics/Bento-Operation/blob/main/launch-content/operator.launch.py&quot;&gt;operator.launch.py&lt;/a&gt;&lt;/i&gt;&lt;/div&gt;" style="swimlane;fontStyle=0;childLayout=stackLayout;horizontal=1;startSize=30;horizontalStack=0;resizeParent=1;resizeParentMax=0;resizeLast=0;collapsible=1;marginBottom=0;whiteSpace=wrap;html=1;rounded=0;shadow=0;glass=0;fillStyle=hatch;strokeColor=#9673a6;align=center;verticalAlign=middle;swimlaneFillColor=none;fontFamily=Courier New;fontSize=12;fontColor=default;fillColor=#C3ABD0;container=0;" parent="1" vertex="1">
          <mxGeometry x="470" y="129" width="140" height="60" as="geometry" />
        </mxCell>
        <mxCell id="tnhIsLXUUWxpaCLOrSYH-9" value="&lt;a href=&quot;https://github.com/Bento-Robotics/Bento-Operation&quot;&gt;Bento-Operation&lt;/a&gt;" style="text;strokeColor=none;fillColor=none;align=center;verticalAlign=middle;spacingLeft=4;spacingRight=4;overflow=hidden;points=[[0,0.5],[1,0.5]];portConstraint=eastwest;rotatable=0;whiteSpace=wrap;html=1;fontFamily=Courier New;fontSize=12;fontColor=default;fontStyle=0;horizontal=1;container=0;" parent="1" vertex="1">
          <mxGeometry x="470" y="160" width="140" height="30" as="geometry" />
        </mxCell>
        <mxCell id="tnhIsLXUUWxpaCLOrSYH-67" value="" style="endArrow=classic;html=1;rounded=0;fontFamily=Courier New;fontSize=12;fontColor=default;fontStyle=0;horizontal=1;edgeStyle=orthogonalEdgeStyle;elbow=vertical;curved=1;flowAnimation=1;dashed=1;" parent="1" source="tnhIsLXUUWxpaCLOrSYH-16" target="tnhIsLXUUWxpaCLOrSYH-12" edge="1">
          <mxGeometry width="50" height="50" relative="1" as="geometry">
            <mxPoint x="410" y="390" as="sourcePoint" />
            <mxPoint x="460" y="340" as="targetPoint" />
            <Array as="points">
              <mxPoint x="390" y="340" />
              <mxPoint x="350" y="340" />
            </Array>
          </mxGeometry>
        </mxCell>
        <mxCell id="tnhIsLXUUWxpaCLOrSYH-69" value="/joy" style="edgeLabel;html=1;align=center;verticalAlign=middle;resizable=0;points=[];spacingLeft=4;spacingRight=4;fontFamily=Courier New;fontSize=12;fontColor=default;fontStyle=0;horizontal=1;fillColor=none;gradientColor=none;" parent="tnhIsLXUUWxpaCLOrSYH-67" vertex="1" connectable="0">
          <mxGeometry x="-0.0273" y="1" relative="1" as="geometry">
            <mxPoint x="-7" y="-7" as="offset" />
          </mxGeometry>
        </mxCell>
        <mxCell id="tnhIsLXUUWxpaCLOrSYH-68" value="" style="endArrow=classic;html=1;rounded=0;fontFamily=Courier New;fontSize=12;fontColor=default;fontStyle=0;horizontal=1;edgeStyle=orthogonalEdgeStyle;flowAnimation=1;dashed=1;" parent="1" edge="1">
          <mxGeometry width="50" height="50" relative="1" as="geometry">
            <mxPoint x="310" y="320" as="sourcePoint" />
            <mxPoint x="310" y="481.9" as="targetPoint" />
            <Array as="points">
              <mxPoint x="310" y="410" />
              <mxPoint x="310" y="410" />
            </Array>
          </mxGeometry>
        </mxCell>
        <mxCell id="tnhIsLXUUWxpaCLOrSYH-79" value="/cmd_vel" style="edgeLabel;html=1;align=center;verticalAlign=middle;resizable=0;points=[];spacingLeft=4;spacingRight=4;fontFamily=Courier New;fontSize=12;fontColor=default;fontStyle=0;horizontal=1;fillColor=none;gradientColor=none;rotation=270;" parent="tnhIsLXUUWxpaCLOrSYH-68" vertex="1" connectable="0">
          <mxGeometry x="-0.105" y="2" relative="1" as="geometry">
            <mxPoint x="-3" y="10" as="offset" />
          </mxGeometry>
        </mxCell>
        <mxCell id="tnhIsLXUUWxpaCLOrSYH-77" value="&lt;div align=&quot;left&quot;&gt;&lt;span style=&quot;background-color: light-dark(#ffffff, var(--ge-dark-color, #121212));&quot;&gt;&lt;i&gt;namespace:&lt;/i&gt;&lt;/span&gt;&lt;br&gt;&lt;span style=&quot;background-color: light-dark(#ffffff, var(--ge-dark-color, #121212));&quot;&gt;&amp;lt;name&amp;gt;/&lt;/span&gt;&lt;/div&gt;" style="text;html=1;align=center;verticalAlign=middle;whiteSpace=wrap;rounded=0;fontFamily=Courier New;fontSize=12;fontColor=default;fontStyle=0;horizontal=1;" parent="1" vertex="1">
          <mxGeometry x="59" y="362" width="60" height="30" as="geometry" />
        </mxCell>
        <mxCell id="tnhIsLXUUWxpaCLOrSYH-94" value="" style="endArrow=classic;html=1;rounded=0;fontFamily=Courier New;fontSize=12;fontColor=default;fontStyle=0;horizontal=1;flowAnimation=1;dashed=1;edgeStyle=orthogonalEdgeStyle;" parent="1" edge="1">
          <mxGeometry width="50" height="50" relative="1" as="geometry">
            <mxPoint x="220.0322580645161" y="320" as="sourcePoint" />
            <mxPoint x="220.0322580645161" y="492.20000000000005" as="targetPoint" />
            <Array as="points">
              <mxPoint x="220" y="400" />
              <mxPoint x="220" y="400" />
            </Array>
          </mxGeometry>
        </mxCell>
        <mxCell id="tnhIsLXUUWxpaCLOrSYH-99" value="/arm_control_relative" style="edgeLabel;html=1;align=center;verticalAlign=middle;resizable=0;points=[];spacingLeft=4;spacingRight=4;fontFamily=Courier New;fontSize=12;fontColor=default;fontStyle=0;horizontal=1;fillColor=none;gradientColor=none;rotation=270;" parent="tnhIsLXUUWxpaCLOrSYH-94" vertex="1" connectable="0">
          <mxGeometry x="-0.197" y="2" relative="1" as="geometry">
            <mxPoint x="-3" y="16" as="offset" />
          </mxGeometry>
        </mxCell>
        <mxCell id="tnhIsLXUUWxpaCLOrSYH-95" value="" style="endArrow=classic;html=1;rounded=0;fontFamily=Courier New;fontSize=12;fontColor=default;fontStyle=0;horizontal=1;flowAnimation=1;dashed=1;dashPattern=12 12;startArrow=open;startFill=0;" parent="1" edge="1">
          <mxGeometry width="50" height="50" relative="1" as="geometry">
            <mxPoint x="60" y="30" as="sourcePoint" />
            <mxPoint x="140" y="30" as="targetPoint" />
          </mxGeometry>
        </mxCell>
        <mxCell id="tnhIsLXUUWxpaCLOrSYH-138" value="Service" style="edgeLabel;html=1;align=center;verticalAlign=middle;resizable=0;points=[];spacingLeft=4;spacingRight=4;fontFamily=Courier New;fontSize=12;fontColor=default;fontStyle=0;horizontal=1;fillColor=none;gradientColor=none;labelBackgroundColor=none;" parent="tnhIsLXUUWxpaCLOrSYH-95" vertex="1" connectable="0">
          <mxGeometry x="-0.05" y="1" relative="1" as="geometry">
            <mxPoint x="-3" y="-7" as="offset" />
          </mxGeometry>
        </mxCell>
        <mxCell id="tnhIsLXUUWxpaCLOrSYH-97" value="" style="endArrow=classic;html=1;rounded=0;fontFamily=Courier New;fontSize=12;fontColor=default;fontStyle=0;horizontal=1;flowAnimation=1;dashed=1;" parent="1" edge="1">
          <mxGeometry width="50" height="50" relative="1" as="geometry">
            <mxPoint x="60" y="50" as="sourcePoint" />
            <mxPoint x="140" y="50" as="targetPoint" />
          </mxGeometry>
        </mxCell>
        <mxCell id="tnhIsLXUUWxpaCLOrSYH-139" value="&lt;span&gt;Topic&lt;/span&gt;" style="edgeLabel;html=1;align=center;verticalAlign=middle;resizable=0;points=[];spacingLeft=4;spacingRight=4;fontFamily=Courier New;fontSize=12;fontColor=default;fontStyle=0;horizontal=1;fillColor=none;gradientColor=none;labelBackgroundColor=none;" parent="tnhIsLXUUWxpaCLOrSYH-97" vertex="1" connectable="0">
          <mxGeometry x="0.0929" y="1" relative="1" as="geometry">
            <mxPoint x="-14" y="-7" as="offset" />
          </mxGeometry>
        </mxCell>
        <mxCell id="tnhIsLXUUWxpaCLOrSYH-100" value="" style="endArrow=classic;html=1;rounded=0;fontFamily=Courier New;fontSize=12;fontColor=default;fontStyle=0;horizontal=1;edgeStyle=orthogonalEdgeStyle;flowAnimation=1;dashed=1;" parent="1" edge="1">
          <mxGeometry width="50" height="50" relative="1" as="geometry">
            <mxPoint x="288.0672268907563" y="560" as="sourcePoint" />
            <mxPoint x="270" y="320" as="targetPoint" />
            <Array as="points">
              <mxPoint x="270" y="560" />
            </Array>
          </mxGeometry>
        </mxCell>
        <mxCell id="tnhIsLXUUWxpaCLOrSYH-101" value="/maximum/{rpms,velocity}" style="edgeLabel;html=1;align=center;verticalAlign=middle;resizable=0;points=[];spacingLeft=4;spacingRight=4;fontFamily=Courier New;fontSize=12;fontColor=default;fontStyle=0;horizontal=1;fillColor=none;gradientColor=none;rotation=270;" parent="tnhIsLXUUWxpaCLOrSYH-100" vertex="1" connectable="0">
          <mxGeometry x="-0.197" y="2" relative="1" as="geometry">
            <mxPoint x="1" y="-22" as="offset" />
          </mxGeometry>
        </mxCell>
        <mxCell id="tnhIsLXUUWxpaCLOrSYH-80" value="" style="endArrow=classic;html=1;rounded=0;fontFamily=Courier New;fontSize=12;fontColor=default;fontStyle=0;horizontal=1;edgeStyle=orthogonalEdgeStyle;flowAnimation=1;endFill=1;startArrow=none;startFill=0;dashed=1;" parent="1" edge="1">
          <mxGeometry width="50" height="50" relative="1" as="geometry">
            <mxPoint x="290" y="320" as="sourcePoint" />
            <mxPoint x="290" y="481.9" as="targetPoint" />
            <Array as="points">
              <mxPoint x="290" y="350" />
              <mxPoint x="290" y="350" />
            </Array>
          </mxGeometry>
        </mxCell>
        <mxCell id="tnhIsLXUUWxpaCLOrSYH-81" value="/rpmOverride" style="edgeLabel;html=1;align=center;verticalAlign=middle;resizable=0;points=[];spacingLeft=4;spacingRight=4;fontFamily=Courier New;fontSize=12;fontColor=default;fontStyle=0;horizontal=1;fillColor=none;gradientColor=none;rotation=270;" parent="tnhIsLXUUWxpaCLOrSYH-80" vertex="1" connectable="0">
          <mxGeometry x="-0.105" y="2" relative="1" as="geometry">
            <mxPoint x="-3" y="7" as="offset" />
          </mxGeometry>
        </mxCell>
        <mxCell id="tnhIsLXUUWxpaCLOrSYH-102" value="" style="endArrow=classic;html=1;rounded=0;fontFamily=Courier New;fontSize=12;fontColor=default;fontStyle=0;horizontal=1;edgeStyle=orthogonalEdgeStyle;flowAnimation=1;dashed=1;dashPattern=12 12;startArrow=open;startFill=0;" parent="1" edge="1">
          <mxGeometry width="50" height="50" relative="1" as="geometry">
            <mxPoint x="330" y="320" as="sourcePoint" />
            <mxPoint x="330" y="481.9" as="targetPoint" />
            <Array as="points">
              <mxPoint x="330" y="410" />
              <mxPoint x="330" y="410" />
            </Array>
          </mxGeometry>
        </mxCell>
        <mxCell id="tnhIsLXUUWxpaCLOrSYH-103" value="/enable" style="edgeLabel;html=1;align=center;verticalAlign=middle;resizable=0;points=[];spacingLeft=4;spacingRight=4;fontFamily=Courier New;fontSize=12;fontColor=default;fontStyle=0;horizontal=1;fillColor=none;gradientColor=none;rotation=270;" parent="tnhIsLXUUWxpaCLOrSYH-102" vertex="1" connectable="0">
          <mxGeometry x="-0.105" y="2" relative="1" as="geometry">
            <mxPoint x="-3" y="6" as="offset" />
          </mxGeometry>
        </mxCell>
        <mxCell id="tnhIsLXUUWxpaCLOrSYH-108" value="ROS Node" style="rounded=0;whiteSpace=wrap;html=1;align=center;verticalAlign=middle;spacingLeft=4;spacingRight=4;fontFamily=Courier New;fontSize=12;fontStyle=0;horizontal=1;fillColor=#e1d5e7;strokeColor=#9673a6;fillStyle=dots;" parent="1" vertex="1">
          <mxGeometry x="260" y="20" width="80" height="30" as="geometry" />
        </mxCell>
        <mxCell id="tnhIsLXUUWxpaCLOrSYH-110" value="Launchfile" style="rounded=0;whiteSpace=wrap;html=1;align=center;verticalAlign=middle;spacingLeft=4;spacingRight=4;fontFamily=Courier New;fontSize=12;fontStyle=0;horizontal=1;fillColor=#e1d5e7;strokeColor=#9673a6;fillStyle=hatch;" parent="1" vertex="1">
          <mxGeometry x="160" y="20" width="80" height="30" as="geometry" />
        </mxCell>
        <mxCell id="tnhIsLXUUWxpaCLOrSYH-111" value="Sonstiges" style="rounded=0;whiteSpace=wrap;html=1;align=center;verticalAlign=middle;spacingLeft=4;spacingRight=4;fontFamily=Courier New;fontSize=12;fontStyle=0;horizontal=1;fillColor=#e1d5e7;strokeColor=#9673a6;fillStyle=zigzag-line;" parent="1" vertex="1">
          <mxGeometry x="160" y="50" width="80" height="30" as="geometry" />
        </mxCell>
        <mxCell id="tnhIsLXUUWxpaCLOrSYH-26" value="&lt;a href=&quot;https://index.ros.org/p/zbar_ros/&quot;&gt;zbar_ros&lt;/a&gt;" style="swimlane;fontStyle=0;childLayout=stackLayout;horizontal=1;startSize=30;horizontalStack=0;resizeParent=1;resizeParentMax=0;resizeLast=0;collapsible=1;marginBottom=0;whiteSpace=wrap;html=1;rounded=0;shadow=0;glass=0;fillStyle=dots;strokeColor=#9673a6;align=center;verticalAlign=middle;swimlaneFillColor=none;fontFamily=Courier New;fontSize=12;fillColor=#C3ABD0;container=0;" parent="1" vertex="1">
          <mxGeometry x="700" y="129" width="140" height="60" as="geometry" />
        </mxCell>
        <mxCell id="tnhIsLXUUWxpaCLOrSYH-27" value="&lt;span class=&quot;nodeLabel&quot;&gt;QR/Barcode leser&lt;/span&gt;" style="text;strokeColor=none;fillColor=none;align=center;verticalAlign=middle;spacingLeft=4;spacingRight=4;overflow=hidden;points=[[0,0.5],[1,0.5]];portConstraint=eastwest;rotatable=0;whiteSpace=wrap;html=1;fontFamily=Courier New;fontSize=12;fontColor=default;fontStyle=0;horizontal=1;container=0;" parent="tnhIsLXUUWxpaCLOrSYH-26" vertex="1">
          <mxGeometry y="30" width="140" height="30" as="geometry" />
        </mxCell>
        <mxCell id="tnhIsLXUUWxpaCLOrSYH-113" value="" style="endArrow=classic;html=1;rounded=0;fontFamily=Courier New;fontSize=12;fontColor=default;fontStyle=0;horizontal=1;dashed=1;edgeStyle=orthogonalEdgeStyle;flowAnimation=1;curved=1;" parent="1" source="tnhIsLXUUWxpaCLOrSYH-42" target="tnhIsLXUUWxpaCLOrSYH-24" edge="1">
          <mxGeometry width="50" height="50" relative="1" as="geometry">
            <mxPoint x="710" y="360" as="sourcePoint" />
            <mxPoint x="760" y="310" as="targetPoint" />
            <Array as="points">
              <mxPoint x="850" y="360" />
              <mxPoint x="765" y="360" />
            </Array>
          </mxGeometry>
        </mxCell>
        <mxCell id="tnhIsLXUUWxpaCLOrSYH-121" value="/cam1/camera_node_1/image_raw/compressed" style="edgeLabel;html=1;align=center;verticalAlign=middle;resizable=0;points=[];spacingLeft=4;spacingRight=4;fontFamily=Courier New;fontSize=12;fontColor=default;fontStyle=0;horizontal=1;fillColor=none;gradientColor=none;" parent="tnhIsLXUUWxpaCLOrSYH-113" vertex="1" connectable="0">
          <mxGeometry x="-0.1038" relative="1" as="geometry">
            <mxPoint x="-73" y="5" as="offset" />
          </mxGeometry>
        </mxCell>
        <mxCell id="tnhIsLXUUWxpaCLOrSYH-114" value="" style="endArrow=classic;html=1;rounded=0;fontFamily=Courier New;fontSize=12;fontColor=default;fontStyle=0;horizontal=1;edgeStyle=orthogonalEdgeStyle;curved=1;dashed=1;flowAnimation=1;" parent="1" source="tnhIsLXUUWxpaCLOrSYH-42" target="tnhIsLXUUWxpaCLOrSYH-31" edge="1">
          <mxGeometry width="50" height="50" relative="1" as="geometry">
            <mxPoint x="710" y="360" as="sourcePoint" />
            <mxPoint x="760" y="310" as="targetPoint" />
            <Array as="points">
              <mxPoint x="870" y="390" />
              <mxPoint x="990" y="390" />
            </Array>
          </mxGeometry>
        </mxCell>
        <mxCell id="tnhIsLXUUWxpaCLOrSYH-122" value="/cam2/camera_node_2/image_raw/compressed" style="edgeLabel;html=1;align=center;verticalAlign=middle;resizable=0;points=[];spacingLeft=4;spacingRight=4;fontFamily=Courier New;fontSize=12;fontColor=default;fontStyle=0;horizontal=1;fillColor=none;gradientColor=none;" parent="tnhIsLXUUWxpaCLOrSYH-114" vertex="1" connectable="0">
          <mxGeometry x="0.1508" y="-1" relative="1" as="geometry">
            <mxPoint x="-60" y="-5" as="offset" />
          </mxGeometry>
        </mxCell>
        <mxCell id="tnhIsLXUUWxpaCLOrSYH-115" value="" style="endArrow=classic;html=1;rounded=0;fontFamily=Courier New;fontSize=12;fontColor=default;fontStyle=0;horizontal=1;edgeStyle=orthogonalEdgeStyle;curved=1;dashed=1;flowAnimation=1;" parent="1" source="tnhIsLXUUWxpaCLOrSYH-24" target="tnhIsLXUUWxpaCLOrSYH-26" edge="1">
          <mxGeometry width="50" height="50" relative="1" as="geometry">
            <mxPoint x="700" y="320" as="sourcePoint" />
            <mxPoint x="750" y="270" as="targetPoint" />
            <Array as="points">
              <mxPoint x="660" y="300" />
              <mxPoint x="660" y="160" />
            </Array>
          </mxGeometry>
        </mxCell>
        <mxCell id="tnhIsLXUUWxpaCLOrSYH-116" value="/image_repub" style="edgeLabel;html=1;align=center;verticalAlign=middle;resizable=0;points=[];spacingLeft=4;spacingRight=4;fontFamily=Courier New;fontSize=12;fontColor=default;fontStyle=0;horizontal=1;fillColor=none;gradientColor=none;rotation=270;" parent="tnhIsLXUUWxpaCLOrSYH-115" vertex="1" connectable="0">
          <mxGeometry x="0.0309" y="3" relative="1" as="geometry">
            <mxPoint x="4" y="10" as="offset" />
          </mxGeometry>
        </mxCell>
        <mxCell id="tnhIsLXUUWxpaCLOrSYH-117" value="" style="endArrow=classic;html=1;rounded=0;fontFamily=Courier New;fontSize=12;fontColor=default;fontStyle=0;horizontal=1;edgeStyle=orthogonalEdgeStyle;curved=1;dashed=1;flowAnimation=1;" parent="1" source="tnhIsLXUUWxpaCLOrSYH-26" target="tnhIsLXUUWxpaCLOrSYH-29" edge="1">
          <mxGeometry width="50" height="50" relative="1" as="geometry">
            <mxPoint x="700" y="310" as="sourcePoint" />
            <mxPoint x="750" y="260" as="targetPoint" />
            <Array as="points">
              <mxPoint x="820" y="110" />
              <mxPoint x="910" y="110" />
            </Array>
          </mxGeometry>
        </mxCell>
        <mxCell id="tnhIsLXUUWxpaCLOrSYH-118" value="/barcode" style="edgeLabel;html=1;align=center;verticalAlign=middle;resizable=0;points=[];spacingLeft=4;spacingRight=4;fontFamily=Courier New;fontSize=12;fontColor=default;fontStyle=0;horizontal=1;fillColor=none;gradientColor=none;" parent="tnhIsLXUUWxpaCLOrSYH-117" vertex="1" connectable="0">
          <mxGeometry x="0.1403" y="-3" relative="1" as="geometry">
            <mxPoint x="-9" y="1" as="offset" />
          </mxGeometry>
        </mxCell>
        <mxCell id="tnhIsLXUUWxpaCLOrSYH-119" value="" style="endArrow=classic;html=1;rounded=0;fontFamily=Courier New;fontSize=12;fontColor=default;fontStyle=0;horizontal=1;edgeStyle=orthogonalEdgeStyle;curved=1;dashed=1;flowAnimation=1;" parent="1" source="tnhIsLXUUWxpaCLOrSYH-24" target="tnhIsLXUUWxpaCLOrSYH-31" edge="1">
          <mxGeometry width="50" height="50" relative="1" as="geometry">
            <mxPoint x="630" y="290" as="sourcePoint" />
            <mxPoint x="680" y="240" as="targetPoint" />
            <Array as="points">
              <mxPoint x="810" y="340" />
              <mxPoint x="920" y="340" />
            </Array>
          </mxGeometry>
        </mxCell>
        <mxCell id="tnhIsLXUUWxpaCLOrSYH-120" value="/image_repub" style="edgeLabel;html=1;align=center;verticalAlign=middle;resizable=0;points=[];spacingLeft=4;spacingRight=4;fontFamily=Courier New;fontSize=12;fontColor=default;fontStyle=0;horizontal=1;fillColor=none;gradientColor=none;" parent="tnhIsLXUUWxpaCLOrSYH-119" vertex="1" connectable="0">
          <mxGeometry x="0.1564" y="-4" relative="1" as="geometry">
            <mxPoint x="-10" y="-9" as="offset" />
          </mxGeometry>
        </mxCell>
        <mxCell id="tnhIsLXUUWxpaCLOrSYH-132" value="&lt;div align=&quot;left&quot;&gt;start&lt;/div&gt;" style="triangle;whiteSpace=wrap;html=1;align=left;verticalAlign=middle;spacingLeft=4;spacingRight=4;fontFamily=Courier New;fontSize=12;fontStyle=0;horizontal=1;fillColor=#e1d5e7;strokeColor=#9673a6;" parent="1" vertex="1">
          <mxGeometry x="160" y="127.5" width="60" height="55" as="geometry" />
        </mxCell>
        <mxCell id="tnhIsLXUUWxpaCLOrSYH-135" value="Kommentar" style="rounded=0;whiteSpace=wrap;html=1;align=center;verticalAlign=middle;spacingLeft=4;spacingRight=4;fontFamily=Courier New;fontSize=12;fontStyle=0;horizontal=1;fillColor=#e1d5e7;strokeColor=#9673a6;fillStyle=dashed;" parent="1" vertex="1">
          <mxGeometry x="260" y="50" width="80" height="30" as="geometry" />
        </mxCell>
        <mxCell id="tnhIsLXUUWxpaCLOrSYH-155" value="Komprimierte Bild-daten" style="rounded=1;whiteSpace=wrap;html=1;align=center;verticalAlign=middle;spacingLeft=4;spacingRight=4;fontFamily=Courier New;fontSize=12;fontStyle=0;horizontal=1;fillColor=#FFB570;strokeColor=#d79b00;fillStyle=dashed;" parent="1" vertex="1">
          <mxGeometry x="661.26" y="398" width="100" height="31" as="geometry" />
        </mxCell>
        <mxCell id="tnhIsLXUUWxpaCLOrSYH-162" value="" style="endArrow=classic;html=1;rounded=0;fontFamily=Courier New;fontSize=12;fontColor=default;fontStyle=0;horizontal=1;fillColor=#ffe6cc;strokeColor=#d79b00;" parent="1" source="tnhIsLXUUWxpaCLOrSYH-155" edge="1">
          <mxGeometry width="50" height="50" relative="1" as="geometry">
            <mxPoint x="695" y="418" as="sourcePoint" />
            <mxPoint x="780" y="396" as="targetPoint" />
          </mxGeometry>
        </mxCell>
        <mxCell id="tnhIsLXUUWxpaCLOrSYH-163" value="unkomprimierte Bild-daten" style="rounded=1;whiteSpace=wrap;html=1;align=center;verticalAlign=middle;spacingLeft=4;spacingRight=4;fontFamily=Courier New;fontSize=12;fontStyle=0;horizontal=1;fillColor=#FFB570;strokeColor=#d79b00;fillStyle=dashed;" parent="1" vertex="1">
          <mxGeometry x="611" y="314" width="110" height="31" as="geometry" />
        </mxCell>
        <mxCell id="tnhIsLXUUWxpaCLOrSYH-164" value="" style="endArrow=classic;html=1;rounded=0;fontFamily=Courier New;fontSize=12;fontColor=default;fontStyle=0;horizontal=1;fillColor=#ffe6cc;strokeColor=#d79b00;exitX=0.403;exitY=0.008;exitDx=0;exitDy=0;exitPerimeter=0;" parent="1" edge="1">
          <mxGeometry width="50" height="50" relative="1" as="geometry">
            <mxPoint x="657.3299999999999" y="314.24800000000005" as="sourcePoint" />
            <mxPoint x="657" y="270" as="targetPoint" />
            <Array as="points" />
          </mxGeometry>
        </mxCell>
        <mxCell id="tnhIsLXUUWxpaCLOrSYH-165" value="" style="endArrow=classic;html=1;rounded=0;fontFamily=Courier New;fontSize=12;fontColor=default;fontStyle=0;horizontal=1;exitX=1;exitY=0.75;exitDx=0;exitDy=0;fillColor=#ffe6cc;strokeColor=#d79b00;" parent="1" source="tnhIsLXUUWxpaCLOrSYH-163" edge="1">
          <mxGeometry width="50" height="50" relative="1" as="geometry">
            <mxPoint x="643" y="320" as="sourcePoint" />
            <mxPoint x="824" y="337" as="targetPoint" />
          </mxGeometry>
        </mxCell>
        <mxCell id="tnhIsLXUUWxpaCLOrSYH-166" value="&lt;span style=&quot;background-color: light-dark(#ffffff, var(--ge-dark-color, #121212));&quot;&gt;joy&lt;/span&gt; Verwechslung durch Namespace vermieden" style="rounded=1;whiteSpace=wrap;html=1;align=center;verticalAlign=middle;spacingLeft=4;spacingRight=4;fontFamily=Courier New;fontSize=12;fontStyle=0;horizontal=1;fillColor=#FFB570;strokeColor=#d79b00;fillStyle=dashed;" parent="1" vertex="1">
          <mxGeometry x="398" y="305" width="130" height="40" as="geometry" />
        </mxCell>
        <mxCell id="tnhIsLXUUWxpaCLOrSYH-93" value="" style="endArrow=classic;html=1;rounded=0;fontFamily=Courier New;fontSize=12;fontColor=default;fontStyle=0;horizontal=1;edgeStyle=orthogonalEdgeStyle;flowAnimation=1;dashed=1;dashPattern=12 12;startArrow=open;startFill=0;" parent="1" edge="1">
          <mxGeometry width="50" height="50" relative="1" as="geometry">
            <mxPoint x="200.0322580645161" y="320" as="sourcePoint" />
            <mxPoint x="200.0322580645161" y="492.20000000000005" as="targetPoint" />
            <Array as="points">
              <mxPoint x="200" y="450" />
              <mxPoint x="200" y="450" />
            </Array>
          </mxGeometry>
        </mxCell>
        <mxCell id="tnhIsLXUUWxpaCLOrSYH-98" value="/home_arm" style="edgeLabel;html=1;align=center;verticalAlign=middle;resizable=0;points=[];spacingLeft=4;spacingRight=4;fontFamily=Courier New;fontSize=12;fontColor=default;fontStyle=0;horizontal=1;fillColor=none;gradientColor=none;rotation=270;" parent="tnhIsLXUUWxpaCLOrSYH-93" vertex="1" connectable="0">
          <mxGeometry x="0.0212" relative="1" as="geometry">
            <mxPoint x="-1" as="offset" />
          </mxGeometry>
        </mxCell>
        <mxCell id="tnhIsLXUUWxpaCLOrSYH-167" value="rpm* ist die Flippersteuerung" style="rounded=1;whiteSpace=wrap;html=1;align=center;verticalAlign=middle;spacingLeft=4;spacingRight=4;fontFamily=Courier New;fontSize=12;fontStyle=0;horizontal=1;fillColor=#FFB570;strokeColor=#d79b00;fillStyle=dashed;" parent="1" vertex="1">
          <mxGeometry x="340" y="360" width="130" height="30" as="geometry" />
        </mxCell>
        <mxCell id="tnhIsLXUUWxpaCLOrSYH-170" value="=arm einklappen" style="rounded=1;whiteSpace=wrap;html=1;align=center;verticalAlign=middle;spacingLeft=4;spacingRight=4;fontFamily=Courier New;fontSize=12;fontStyle=0;horizontal=1;fillColor=#FFB570;strokeColor=#d79b00;fillStyle=dashed;" parent="1" vertex="1">
          <mxGeometry x="106.5" y="395" width="82.5" height="25" as="geometry" />
        </mxCell>
        <mxCell id="tnhIsLXUUWxpaCLOrSYH-173" value="" style="endArrow=classic;html=1;rounded=0;fontFamily=Courier New;fontSize=12;fontColor=default;fontStyle=0;horizontal=1;flowAnimation=0;" parent="1" edge="1">
          <mxGeometry width="50" height="50" relative="1" as="geometry">
            <mxPoint x="60" y="70" as="sourcePoint" />
            <mxPoint x="140" y="70" as="targetPoint" />
          </mxGeometry>
        </mxCell>
        <mxCell id="tnhIsLXUUWxpaCLOrSYH-174" value="Sonstiges" style="edgeLabel;html=1;align=center;verticalAlign=middle;resizable=0;points=[];spacingLeft=4;spacingRight=4;fontFamily=Courier New;fontSize=12;fontColor=default;fontStyle=0;horizontal=1;fillColor=none;gradientColor=none;labelBackgroundColor=none;" parent="tnhIsLXUUWxpaCLOrSYH-173" vertex="1" connectable="0">
          <mxGeometry x="-0.05" y="1" relative="1" as="geometry">
            <mxPoint x="-3" y="-7" as="offset" />
          </mxGeometry>
        </mxCell>
        <mxCell id="tnhIsLXUUWxpaCLOrSYH-179" value="" style="endArrow=classic;html=1;rounded=0;fontFamily=Courier New;fontSize=12;fontColor=default;fontStyle=0;horizontal=1;edgeStyle=orthogonalEdgeStyle;strokeWidth=2;" parent="1" target="tnhIsLXUUWxpaCLOrSYH-176" edge="1">
          <mxGeometry width="50" height="50" relative="1" as="geometry">
            <mxPoint x="786" y="605" as="sourcePoint" />
            <mxPoint x="473.2752108410932" y="674.9999999999999" as="targetPoint" />
            <Array as="points">
              <mxPoint x="756" y="605" />
              <mxPoint x="756" y="674" />
            </Array>
          </mxGeometry>
        </mxCell>
        <mxCell id="tnhIsLXUUWxpaCLOrSYH-42" value="&lt;a href=&quot;https://github.com/christianrauch/camera_ros&quot;&gt;camera_ros&lt;/a&gt;" style="swimlane;fontStyle=0;childLayout=stackLayout;horizontal=1;startSize=30;horizontalStack=0;resizeParent=1;resizeParentMax=0;resizeLast=0;collapsible=1;marginBottom=0;whiteSpace=wrap;html=1;rounded=0;shadow=0;glass=0;fillStyle=dots;strokeColor=#b85450;align=center;verticalAlign=middle;swimlaneFillColor=none;fontFamily=Courier New;fontSize=12;fillColor=#F19C99;container=0;" parent="1" vertex="1">
          <mxGeometry x="810.3697478991597" y="465.42" width="128.9075630252101" height="60.900000000000006" as="geometry" />
        </mxCell>
        <mxCell id="tnhIsLXUUWxpaCLOrSYH-43" value="&lt;span class=&quot;nodeLabel&quot;&gt;universaler Kamera publisher&lt;/span&gt;" style="text;strokeColor=none;fillColor=none;align=center;verticalAlign=middle;spacingLeft=4;spacingRight=4;overflow=hidden;points=[[0,0.5],[1,0.5]];portConstraint=eastwest;rotatable=0;whiteSpace=wrap;html=1;fontFamily=Courier New;fontSize=12;fontColor=default;fontStyle=0;horizontal=1;container=0;" parent="tnhIsLXUUWxpaCLOrSYH-42" vertex="1">
          <mxGeometry y="30" width="128.9075630252101" height="30.900000000000002" as="geometry" />
        </mxCell>
        <mxCell id="tnhIsLXUUWxpaCLOrSYH-44" value="&lt;a href=&quot;https://github.com/Bento-Robotics/bento_drive&quot;&gt;bento_drive&lt;/a&gt;" style="swimlane;fontStyle=0;childLayout=stackLayout;horizontal=1;startSize=30;horizontalStack=0;resizeParent=1;resizeParentMax=0;resizeLast=0;collapsible=1;marginBottom=0;whiteSpace=wrap;html=1;rounded=0;shadow=0;glass=0;fillStyle=dots;strokeColor=#b85450;align=center;verticalAlign=middle;swimlaneFillColor=none;fontFamily=Courier New;fontSize=12;fillColor=#F19C99;container=0;" parent="1" vertex="1">
          <mxGeometry x="288.0672268907563" y="481.9" width="138.00050420168066" height="102.10000000000001" as="geometry" />
        </mxCell>
        <mxCell id="tnhIsLXUUWxpaCLOrSYH-45" value="Steuert Motorcontroller.&lt;br&gt;&lt;i&gt;&lt;a href=&quot;https://github.com/EduArt-Robotik/edu_drive_ros2&quot;&gt;edu_drive_ros2&lt;/a&gt;,für flipper erweitert&lt;/i&gt;" style="text;strokeColor=none;fillColor=none;align=center;verticalAlign=middle;spacingLeft=4;spacingRight=4;overflow=hidden;points=[[0,0.5],[1,0.5]];portConstraint=eastwest;rotatable=0;whiteSpace=wrap;html=1;fontFamily=Courier New;fontSize=12;fontColor=default;fontStyle=0;horizontal=1;container=0;" parent="tnhIsLXUUWxpaCLOrSYH-44" vertex="1">
          <mxGeometry y="30" width="138.00050420168066" height="72.10000000000001" as="geometry" />
        </mxCell>
        <mxCell id="tnhIsLXUUWxpaCLOrSYH-46" value="&lt;a href=&quot;https://github.com/Slamtec/rplidar_ros&quot;&gt;rplidar_ros&lt;/a&gt;" style="swimlane;fontStyle=0;childLayout=stackLayout;horizontal=1;startSize=30;horizontalStack=0;resizeParent=1;resizeParentMax=0;resizeLast=0;collapsible=1;marginBottom=0;whiteSpace=wrap;html=1;rounded=0;shadow=0;glass=0;fillStyle=dots;strokeColor=#b85450;align=center;verticalAlign=middle;swimlaneFillColor=none;fontFamily=Courier New;fontSize=12;fillColor=#F19C99;container=0;" parent="1" vertex="1">
          <mxGeometry x="1082.7731092436975" y="465.42" width="109.07563025210084" height="60.900000000000006" as="geometry" />
        </mxCell>
        <mxCell id="tnhIsLXUUWxpaCLOrSYH-47" value="&lt;span class=&quot;nodeLabel&quot;&gt;LiDAR Kommunikation&lt;/span&gt;" style="text;strokeColor=none;fillColor=none;align=center;verticalAlign=middle;spacingLeft=4;spacingRight=4;overflow=hidden;points=[[0,0.5],[1,0.5]];portConstraint=eastwest;rotatable=0;whiteSpace=wrap;html=1;fontFamily=Courier New;fontSize=12;fontColor=default;fontStyle=0;horizontal=1;container=0;" parent="tnhIsLXUUWxpaCLOrSYH-46" vertex="1">
          <mxGeometry y="30" width="109.07563025210084" height="30.900000000000002" as="geometry" />
        </mxCell>
        <mxCell id="tnhIsLXUUWxpaCLOrSYH-48" value="&lt;a href=&quot;https://github.com/Bento-Robotics/Bento-Box/blob/main/container/launch-content/bento-box.launch.py#L32-L39&quot;&gt;can fix&lt;/a&gt;" style="swimlane;fontStyle=0;childLayout=stackLayout;horizontal=1;startSize=30;horizontalStack=0;resizeParent=1;resizeParentMax=0;resizeLast=0;collapsible=1;marginBottom=0;whiteSpace=wrap;html=1;rounded=0;shadow=0;glass=0;fillStyle=zigzag-line;strokeColor=#b85450;align=center;verticalAlign=middle;swimlaneFillColor=none;fontFamily=Courier New;fontSize=12;fillColor=#F19C99;container=0;" parent="1" vertex="1">
          <mxGeometry x="586.55" y="465.42" width="134.45" height="60.900000000000006" as="geometry" />
        </mxCell>
        <mxCell id="tnhIsLXUUWxpaCLOrSYH-49" value="&lt;div&gt;ohne&amp;nbsp;&lt;span class=&quot;nodeLabel&quot;&gt;EduArt Turm&lt;/span&gt;&lt;/div&gt;&lt;div&gt;&lt;span class=&quot;nodeLabel&quot;&gt;&lt;/span&gt;&lt;/div&gt;&lt;span class=&quot;nodeLabel&quot;&gt;&lt;span style=&quot;background-color: generic-light-dark(rgb(255, 192, 40), rgb(237, 237, 237));&quot;&gt;&lt;span style=&quot;background-color: light-dark(#ffffff, var(--ge-dark-color, #121212));&quot;&gt;&lt;i&gt;&lt;span style=&quot;color: generic-light-dark(rgb(165, 29, 45), rgb(237, 237, 237));&quot;&gt;nur bento-box&lt;/span&gt;&lt;/i&gt;&lt;/span&gt;&lt;/span&gt;&lt;/span&gt;" style="text;strokeColor=none;fillColor=none;align=center;verticalAlign=middle;spacingLeft=4;spacingRight=4;overflow=hidden;points=[[0,0.5],[1,0.5]];portConstraint=eastwest;rotatable=0;whiteSpace=wrap;html=1;fontFamily=Courier New;fontSize=12;fontColor=default;fontStyle=0;horizontal=1;container=0;" parent="tnhIsLXUUWxpaCLOrSYH-48" vertex="1">
          <mxGeometry y="30" width="134.45" height="30.900000000000002" as="geometry" />
        </mxCell>
        <mxCell id="tnhIsLXUUWxpaCLOrSYH-53" style="edgeStyle=orthogonalEdgeStyle;rounded=0;orthogonalLoop=1;jettySize=auto;html=1;fontFamily=Courier New;fontSize=12;fontColor=default;fontStyle=0;horizontal=1;" parent="1" source="tnhIsLXUUWxpaCLOrSYH-57" target="tnhIsLXUUWxpaCLOrSYH-44" edge="1">
          <mxGeometry relative="1" as="geometry">
            <mxPoint x="581.5315315315315" y="574.6" as="sourcePoint" />
            <Array as="points">
              <mxPoint x="600" y="570" />
            </Array>
          </mxGeometry>
        </mxCell>
        <mxCell id="tnhIsLXUUWxpaCLOrSYH-54" style="edgeStyle=orthogonalEdgeStyle;rounded=0;orthogonalLoop=1;jettySize=auto;html=1;fontFamily=Courier New;fontSize=12;fontColor=default;fontStyle=0;horizontal=1;" parent="1" source="tnhIsLXUUWxpaCLOrSYH-57" target="tnhIsLXUUWxpaCLOrSYH-46" edge="1">
          <mxGeometry relative="1" as="geometry">
            <mxPoint x="581.5315315315315" y="574.6" as="sourcePoint" />
            <Array as="points">
              <mxPoint x="620" y="560" />
              <mxPoint x="1130" y="560" />
            </Array>
          </mxGeometry>
        </mxCell>
        <mxCell id="tnhIsLXUUWxpaCLOrSYH-55" style="edgeStyle=orthogonalEdgeStyle;rounded=0;orthogonalLoop=1;jettySize=auto;html=1;fontFamily=Courier New;fontSize=12;fontColor=default;fontStyle=0;horizontal=1;" parent="1" source="tnhIsLXUUWxpaCLOrSYH-57" target="tnhIsLXUUWxpaCLOrSYH-42" edge="1">
          <mxGeometry relative="1" as="geometry">
            <mxPoint x="581.5315315315315" y="574.6" as="sourcePoint" />
            <Array as="points">
              <mxPoint x="610" y="550" />
              <mxPoint x="875" y="550" />
            </Array>
          </mxGeometry>
        </mxCell>
        <mxCell id="tnhIsLXUUWxpaCLOrSYH-56" style="edgeStyle=orthogonalEdgeStyle;rounded=0;orthogonalLoop=1;jettySize=auto;html=1;fontFamily=Courier New;fontSize=12;fontColor=default;fontStyle=0;horizontal=1;" parent="1" source="tnhIsLXUUWxpaCLOrSYH-57" target="tnhIsLXUUWxpaCLOrSYH-48" edge="1">
          <mxGeometry relative="1" as="geometry">
            <mxPoint x="581.5315315315315" y="615.8" as="sourcePoint" />
            <Array as="points">
              <mxPoint x="590" y="570" />
              <mxPoint x="600" y="570" />
            </Array>
          </mxGeometry>
        </mxCell>
        <mxCell id="tnhIsLXUUWxpaCLOrSYH-64" style="edgeStyle=orthogonalEdgeStyle;rounded=0;orthogonalLoop=1;jettySize=auto;html=1;fontFamily=Courier New;fontSize=12;fontColor=default;fontStyle=0;horizontal=1;" parent="1" source="tnhIsLXUUWxpaCLOrSYH-57" target="tnhIsLXUUWxpaCLOrSYH-61" edge="1">
          <mxGeometry relative="1" as="geometry">
            <mxPoint x="581.4957983193277" y="574.6" as="sourcePoint" />
            <Array as="points">
              <mxPoint x="630" y="560" />
              <mxPoint x="1310" y="560" />
            </Array>
          </mxGeometry>
        </mxCell>
        <mxCell id="tnhIsLXUUWxpaCLOrSYH-196" style="edgeStyle=orthogonalEdgeStyle;rounded=0;orthogonalLoop=1;jettySize=auto;html=1;exitX=0.75;exitY=0;exitDx=0;exitDy=0;fontFamily=Courier New;fontSize=12;fontColor=default;fontStyle=0;horizontal=1;curved=1;dashed=1;flowAnimation=1;" parent="1" source="tnhIsLXUUWxpaCLOrSYH-61" target="tnhIsLXUUWxpaCLOrSYH-187" edge="1">
          <mxGeometry relative="1" as="geometry" />
        </mxCell>
        <mxCell id="tnhIsLXUUWxpaCLOrSYH-231" value="laser_frame" style="edgeLabel;html=1;align=center;verticalAlign=middle;resizable=0;points=[];spacingLeft=4;spacingRight=4;fontFamily=Courier New;fontSize=12;fontColor=default;fontStyle=0;horizontal=1;fillColor=none;gradientColor=none;" parent="tnhIsLXUUWxpaCLOrSYH-196" vertex="1" connectable="0">
          <mxGeometry x="0.0838" y="2" relative="1" as="geometry">
            <mxPoint as="offset" />
          </mxGeometry>
        </mxCell>
        <mxCell id="tnhIsLXUUWxpaCLOrSYH-61" value="&lt;div&gt;&lt;a href=&quot;https://index.ros.org/p/tf2_ros/&quot;&gt;tf2_ros&lt;/a&gt;&lt;/div&gt;&lt;div&gt;&lt;a href=&quot;https://github.com/Bento-Robotics/Schaeufele/blob/9fc678c4448ebca7e25e0bcac047c3eb4d60dd99/container/launch-content/schaeufele.launch.py#L61-L69&quot;&gt;static_transform_publisher&lt;/a&gt;&lt;/div&gt;" style="swimlane;fontStyle=0;childLayout=stackLayout;horizontal=1;startSize=30;horizontalStack=0;resizeParent=1;resizeParentMax=0;resizeLast=0;collapsible=1;marginBottom=0;whiteSpace=wrap;html=1;rounded=0;shadow=0;glass=0;fillStyle=dots;strokeColor=#b85450;align=center;verticalAlign=middle;swimlaneFillColor=none;fontFamily=Courier New;fontSize=12;fillColor=#F19C99;container=0;" parent="1" vertex="1">
          <mxGeometry x="1201.764705882353" y="465.42" width="198.31932773109244" height="60.900000000000006" as="geometry" />
        </mxCell>
        <mxCell id="tnhIsLXUUWxpaCLOrSYH-62" value="beschreibt wo sich der LiDAR am roboter befindet" style="text;strokeColor=none;fillColor=none;align=center;verticalAlign=middle;spacingLeft=4;spacingRight=4;overflow=hidden;points=[[0,0.5],[1,0.5]];portConstraint=eastwest;rotatable=0;whiteSpace=wrap;html=1;fontFamily=Courier New;fontSize=12;fontColor=default;fontStyle=0;horizontal=1;container=0;" parent="tnhIsLXUUWxpaCLOrSYH-61" vertex="1">
          <mxGeometry y="30" width="198.31932773109244" height="30.900000000000002" as="geometry" />
        </mxCell>
        <mxCell id="tnhIsLXUUWxpaCLOrSYH-57" value="&lt;div&gt;Roboter container&lt;/div&gt;&lt;i&gt;&amp;lt;name&amp;gt;.launch.py&lt;/i&gt;" style="swimlane;fontStyle=0;childLayout=stackLayout;horizontal=1;startSize=30;horizontalStack=0;resizeParent=1;resizeParentMax=0;resizeLast=0;collapsible=1;marginBottom=0;whiteSpace=wrap;html=1;align=center;verticalAlign=middle;spacingLeft=4;spacingRight=4;fontFamily=Courier New;fontSize=12;fillColor=#F19C99;strokeColor=#b85450;fillStyle=hatch;" parent="1" vertex="1">
          <mxGeometry x="501.8018018018018" y="584.9" width="159.45945945945945" height="71.2" as="geometry" />
        </mxCell>
        <mxCell id="tnhIsLXUUWxpaCLOrSYH-58" value="&lt;a href=&quot;https://github.com/Bento-Robotics/Bento-Box/tree/main/container&quot;&gt;Bento-Box/container&lt;/a&gt;" style="text;strokeColor=none;fillColor=none;align=left;verticalAlign=middle;spacingLeft=4;spacingRight=4;overflow=hidden;points=[[0,0.5],[1,0.5]];portConstraint=eastwest;rotatable=0;whiteSpace=wrap;html=1;fontFamily=Courier New;fontSize=12;fontColor=default;fontStyle=0;horizontal=1;" parent="tnhIsLXUUWxpaCLOrSYH-57" vertex="1">
          <mxGeometry y="30" width="159.45945945945945" height="20.6" as="geometry" />
        </mxCell>
        <mxCell id="tnhIsLXUUWxpaCLOrSYH-59" value="&lt;a href=&quot;https://github.com/Bento-Robotics/Schaeufele/tree/main/container&quot;&gt;Schäufele/container&lt;/a&gt;" style="text;strokeColor=none;fillColor=none;align=left;verticalAlign=middle;spacingLeft=4;spacingRight=4;overflow=hidden;points=[[0,0.5],[1,0.5]];portConstraint=eastwest;rotatable=0;whiteSpace=wrap;html=1;fontFamily=Courier New;fontSize=12;fontColor=default;fontStyle=0;horizontal=1;" parent="tnhIsLXUUWxpaCLOrSYH-57" vertex="1">
          <mxGeometry y="50.6" width="159.45945945945945" height="20.6" as="geometry" />
        </mxCell>
        <mxCell id="tnhIsLXUUWxpaCLOrSYH-70" value="&lt;a href=&quot;https://index.ros.org/p/joy_linux/&quot;&gt;joy_linux&lt;/a&gt;" style="swimlane;fontStyle=0;childLayout=stackLayout;horizontal=1;startSize=30;horizontalStack=0;resizeParent=1;resizeParentMax=0;resizeLast=0;collapsible=1;marginBottom=0;whiteSpace=wrap;html=1;rounded=0;shadow=0;glass=0;fillStyle=dots;strokeColor=#b85450;align=center;verticalAlign=middle;swimlaneFillColor=none;fontFamily=Courier New;fontSize=12;fillColor=#F19C99;container=0;" parent="1" vertex="1">
          <mxGeometry x="436.8067226890756" y="459.24" width="140" height="91.8" as="geometry" />
        </mxCell>
        <mxCell id="tnhIsLXUUWxpaCLOrSYH-72" value="&lt;div&gt;J&lt;span class=&quot;nodeLabel&quot;&gt;oystick Publisher&lt;/span&gt;&lt;/div&gt;&lt;div style=&quot;line-height: 100%;&quot;&gt;&lt;i&gt;&lt;span class=&quot;nodeLabel&quot;&gt;für direkt angeschlossenen Joystick&lt;/span&gt;&lt;/i&gt;&lt;/div&gt;" style="text;strokeColor=none;fillColor=none;align=center;verticalAlign=middle;spacingLeft=4;spacingRight=4;overflow=hidden;points=[[0,0.5],[1,0.5]];portConstraint=eastwest;rotatable=0;whiteSpace=wrap;html=1;fontFamily=Courier New;fontSize=12;fontColor=default;fontStyle=0;horizontal=1;container=0;" parent="tnhIsLXUUWxpaCLOrSYH-70" vertex="1">
          <mxGeometry y="30" width="140" height="61.8" as="geometry" />
        </mxCell>
        <mxCell id="tnhIsLXUUWxpaCLOrSYH-71" value="" style="endArrow=classic;html=1;rounded=0;fontFamily=Courier New;fontSize=12;fontColor=default;fontStyle=0;horizontal=1;edgeStyle=orthogonalEdgeStyle;" parent="1" source="tnhIsLXUUWxpaCLOrSYH-57" target="tnhIsLXUUWxpaCLOrSYH-70" edge="1">
          <mxGeometry width="50" height="50" relative="1" as="geometry">
            <mxPoint x="592.1621621621622" y="451" as="sourcePoint" />
            <mxPoint x="645.3153153153153" y="399.5" as="targetPoint" />
            <Array as="points">
              <mxPoint x="580" y="570" />
              <mxPoint x="590" y="570" />
              <mxPoint x="590" y="540" />
            </Array>
          </mxGeometry>
        </mxCell>
        <mxCell id="tnhIsLXUUWxpaCLOrSYH-73" value="&lt;div align=&quot;left&quot;&gt;&lt;font style=&quot;font-size: 18px;&quot;&gt;&lt;b&gt;Robot&lt;/b&gt;&lt;/font&gt;&lt;/div&gt;" style="text;html=1;align=left;verticalAlign=middle;whiteSpace=wrap;rounded=0;fontFamily=Courier New;container=0;" parent="1" vertex="1">
          <mxGeometry x="71.26126126126127" y="718.8" width="106.30630630630631" height="41.2" as="geometry" />
        </mxCell>
        <mxCell id="tnhIsLXUUWxpaCLOrSYH-74" value="" style="endArrow=classic;html=1;rounded=0;fontFamily=Courier New;fontSize=12;fontColor=default;fontStyle=0;horizontal=1;edgeStyle=orthogonalEdgeStyle;elbow=vertical;curved=1;flowAnimation=1;dashed=1;" parent="1" source="tnhIsLXUUWxpaCLOrSYH-70" target="tnhIsLXUUWxpaCLOrSYH-44" edge="1">
          <mxGeometry width="50" height="50" relative="1" as="geometry">
            <mxPoint x="262.6126126126126" y="399.5" as="sourcePoint" />
            <mxPoint x="177.56756756756755" y="399.5" as="targetPoint" />
            <Array as="points">
              <mxPoint x="430" y="470" />
              <mxPoint x="430" y="440" />
              <mxPoint x="377" y="440" />
            </Array>
          </mxGeometry>
        </mxCell>
        <mxCell id="tnhIsLXUUWxpaCLOrSYH-75" value="/joy" style="edgeLabel;html=1;align=center;verticalAlign=middle;resizable=0;points=[];spacingLeft=4;spacingRight=4;fontFamily=Courier New;fontSize=12;fontColor=default;fontStyle=0;horizontal=1;fillColor=none;gradientColor=none;" parent="tnhIsLXUUWxpaCLOrSYH-74" vertex="1" connectable="0">
          <mxGeometry x="-0.0273" y="1" relative="1" as="geometry">
            <mxPoint x="2" y="1" as="offset" />
          </mxGeometry>
        </mxCell>
        <mxCell id="tnhIsLXUUWxpaCLOrSYH-87" value="&lt;a href=&quot;https://index.ros.org/p/micro_ros_agent/&quot;&gt;micro_ros_agent&lt;/a&gt;" style="swimlane;fontStyle=0;childLayout=stackLayout;horizontal=1;startSize=30;horizontalStack=0;resizeParent=1;resizeParentMax=0;resizeLast=0;collapsible=1;marginBottom=0;whiteSpace=wrap;html=1;rounded=0;shadow=0;glass=0;fillStyle=dots;strokeColor=#b85450;align=center;verticalAlign=middle;swimlaneFillColor=none;fontFamily=Courier New;fontSize=12;fillColor=#F19C99;container=0;" parent="1" vertex="1">
          <mxGeometry x="119.41176470588235" y="595.2" width="127.47966386554623" height="81.5" as="geometry" />
        </mxCell>
        <mxCell id="tnhIsLXUUWxpaCLOrSYH-88" value="Kommunikations- brücke für ROS auf arduinos" style="text;strokeColor=none;fillColor=none;align=center;verticalAlign=middle;spacingLeft=4;spacingRight=4;overflow=hidden;points=[[0,0.5],[1,0.5]];portConstraint=eastwest;rotatable=0;whiteSpace=wrap;html=1;fontFamily=Courier New;fontSize=12;fontColor=default;fontStyle=0;horizontal=1;container=0;" parent="tnhIsLXUUWxpaCLOrSYH-87" vertex="1">
          <mxGeometry y="30" width="127.47966386554623" height="51.5" as="geometry" />
        </mxCell>
        <mxCell id="tnhIsLXUUWxpaCLOrSYH-90" value="&lt;a href=&quot;https://github.com/Bento-Robotics/micro_rosso_2dof_arm&quot;&gt;micro_rosso_2dof_arm&lt;/a&gt;" style="swimlane;fontStyle=0;childLayout=stackLayout;horizontal=1;startSize=30;horizontalStack=0;resizeParent=1;resizeParentMax=0;resizeLast=0;collapsible=1;marginBottom=0;whiteSpace=wrap;html=1;rounded=0;shadow=0;glass=0;fillStyle=dots;strokeColor=#b85450;align=center;verticalAlign=middle;swimlaneFillColor=none;fontFamily=Courier New;fontSize=12;fillColor=#F19C99;container=0;" parent="1" vertex="1">
          <mxGeometry x="79.66" y="492.2" width="160.34" height="81.5" as="geometry" />
        </mxCell>
        <mxCell id="tnhIsLXUUWxpaCLOrSYH-91" value="&lt;div&gt;Arm microcontroller software.&lt;/div&gt;&lt;div&gt;2 Servo kinematik&lt;/div&gt;" style="text;strokeColor=none;fillColor=none;align=center;verticalAlign=middle;spacingLeft=4;spacingRight=4;overflow=hidden;points=[[0,0.5],[1,0.5]];portConstraint=eastwest;rotatable=0;whiteSpace=wrap;html=1;fontFamily=Courier New;fontSize=12;fontColor=default;fontStyle=0;horizontal=1;container=0;" parent="tnhIsLXUUWxpaCLOrSYH-90" vertex="1">
          <mxGeometry y="30" width="160.34" height="51.5" as="geometry" />
        </mxCell>
        <mxCell id="tnhIsLXUUWxpaCLOrSYH-106" value="" style="endArrow=classic;html=1;rounded=0;fontFamily=Courier New;fontSize=12;fontColor=default;fontStyle=0;horizontal=1;edgeStyle=orthogonalEdgeStyle;" parent="1" source="tnhIsLXUUWxpaCLOrSYH-176" target="tnhIsLXUUWxpaCLOrSYH-87" edge="1">
          <mxGeometry width="50" height="50" relative="1" as="geometry">
            <mxPoint x="555.7142857142858" y="492.2" as="sourcePoint" />
            <mxPoint x="605.2941176470588" y="440.7" as="targetPoint" />
            <Array as="points">
              <mxPoint x="380" y="630" />
            </Array>
          </mxGeometry>
        </mxCell>
        <mxCell id="tnhIsLXUUWxpaCLOrSYH-107" value="" style="endArrow=classic;html=1;rounded=0;fontFamily=Courier New;fontSize=12;fontColor=default;fontStyle=0;horizontal=1;edgeStyle=orthogonalEdgeStyle;" parent="1" source="tnhIsLXUUWxpaCLOrSYH-87" target="tnhIsLXUUWxpaCLOrSYH-90" edge="1">
          <mxGeometry width="50" height="50" relative="1" as="geometry">
            <mxPoint x="555.7142857142858" y="492.2" as="sourcePoint" />
            <mxPoint x="605.2941176470588" y="440.7" as="targetPoint" />
            <Array as="points">
              <mxPoint x="208.65546218487395" y="584.9" />
              <mxPoint x="149.15966386554624" y="584.9" />
            </Array>
          </mxGeometry>
        </mxCell>
        <mxCell id="tnhIsLXUUWxpaCLOrSYH-126" value="Serial" style="edgeLabel;html=1;align=center;verticalAlign=middle;resizable=0;points=[];spacingLeft=4;spacingRight=4;fontFamily=Courier New;fontSize=12;fontColor=default;fontStyle=0;horizontal=1;fillColor=none;gradientColor=none;" parent="tnhIsLXUUWxpaCLOrSYH-107" vertex="1" connectable="0">
          <mxGeometry x="-0.1772" y="2" relative="1" as="geometry">
            <mxPoint x="-6" y="-2" as="offset" />
          </mxGeometry>
        </mxCell>
        <mxCell id="tnhIsLXUUWxpaCLOrSYH-129" style="edgeStyle=orthogonalEdgeStyle;rounded=0;orthogonalLoop=1;jettySize=auto;html=1;fontFamily=Courier New;fontSize=12;fontColor=default;fontStyle=0;horizontal=1;strokeWidth=2;" parent="1" source="tnhIsLXUUWxpaCLOrSYH-153" target="tnhIsLXUUWxpaCLOrSYH-57" edge="1">
          <mxGeometry relative="1" as="geometry">
            <mxPoint x="684.621848739496" y="693.0832258064515" as="sourcePoint" />
            <Array as="points">
              <mxPoint x="929.546218487395" y="604.47" />
            </Array>
          </mxGeometry>
        </mxCell>
        <mxCell id="tnhIsLXUUWxpaCLOrSYH-130" value="&lt;div&gt;docker compose&lt;/div&gt;&lt;div&gt;auto-start&lt;/div&gt;" style="edgeLabel;html=1;align=center;verticalAlign=middle;resizable=0;points=[];spacingLeft=4;spacingRight=4;fontFamily=Courier New;fontSize=12;fontColor=default;fontStyle=0;horizontal=1;fillColor=none;gradientColor=none;" parent="tnhIsLXUUWxpaCLOrSYH-129" vertex="1" connectable="0">
          <mxGeometry x="-0.2168" y="-2" relative="1" as="geometry">
            <mxPoint x="-15" y="2" as="offset" />
          </mxGeometry>
        </mxCell>
        <mxCell id="tnhIsLXUUWxpaCLOrSYH-140" value="&lt;div&gt;CAN Bus&amp;nbsp;mit&lt;/div&gt;&lt;div&gt;&lt;font style=&quot;background-color: light-dark(#ffffff, var(--ge-dark-color, #121212));&quot; face=&quot;Courier New&quot;&gt;systemd-networkd&lt;/font&gt;&lt;/div&gt;&lt;div&gt;eingerichtet&lt;/div&gt;" style="rounded=1;whiteSpace=wrap;html=1;align=center;verticalAlign=middle;spacingLeft=4;spacingRight=4;fontFamily=Courier New;fontSize=12;fontStyle=0;horizontal=1;fillColor=#FFB570;strokeColor=#d79b00;fillStyle=dashed;" parent="1" vertex="1">
          <mxGeometry x="957.28" y="581.63" width="128.72" height="61.8" as="geometry" />
        </mxCell>
        <mxCell id="tnhIsLXUUWxpaCLOrSYH-146" value="&lt;div align=&quot;center&quot;&gt;Netzwerk und&lt;/div&gt;&lt;div align=&quot;center&quot;&gt;USB startup&lt;/div&gt;" style="shape=step;perimeter=stepPerimeter;whiteSpace=wrap;html=1;fixedSize=1;align=center;verticalAlign=middle;spacingLeft=4;spacingRight=4;fontFamily=Courier New;fontSize=12;fontStyle=0;horizontal=1;fillColor=#f8cecc;direction=west;strokeColor=#b85450;fillStyle=solid;size=9.999999999999773;" parent="1" vertex="1">
          <mxGeometry x="962.2689075630252" y="647.55" width="109.07563025210084" height="51.5" as="geometry" />
        </mxCell>
        <mxCell id="tnhIsLXUUWxpaCLOrSYH-152" value="&lt;font face=&quot;Courier New&quot;&gt;boot&lt;/font&gt;" style="shape=stencil(5ZTRDoIgFIafhnuDrOtmddk7IGIyERyQ1tsnHt0y0zVr3bRxc/4fvnMY/0AkshktOcKBogVHZI8wto4rJuTJCxg3VgZ6GEBZQ7kNoaS25MyBVlEjaCy7c9YZnfNaJK4jCJVxI5x3yQEFu2aPXySKKcvPRl9UMjB6u6SeMDJ6u9CVv8EVmuBurhuU3dAIH2cIUqgHwib4MiFcgHi6xhLEaj1A9MQPpnhrCCa15ZO7SNToowdt1YkUkCjVhs/EIxVSQtZmuv46Q98m/EeGXqej9yYfuT02Skmrwv/WCnc=);whiteSpace=wrap;html=1;fillColor=#e1d5e7;strokeColor=#9673a6;" parent="1" vertex="1">
          <mxGeometry x="1051.5126050420167" y="647.55" width="69.41176470588235" height="51.5" as="geometry" />
        </mxCell>
        <mxCell id="tnhIsLXUUWxpaCLOrSYH-153" value="Docker startup" style="shape=step;perimeter=stepPerimeter;whiteSpace=wrap;html=1;fixedSize=1;align=center;verticalAlign=middle;spacingLeft=4;spacingRight=4;fontFamily=Courier New;fontSize=12;fontStyle=0;horizontal=1;fillColor=#f8cecc;direction=west;strokeColor=#b85450;fillStyle=solid;size=9.999999999999773;" parent="1" vertex="1">
          <mxGeometry x="889.8823529411765" y="647.55" width="79.32773109243698" height="51.5" as="geometry" />
        </mxCell>
        <mxCell id="tnhIsLXUUWxpaCLOrSYH-157" value="Software startup" style="shape=step;perimeter=stepPerimeter;whiteSpace=wrap;html=1;fixedSize=1;align=center;verticalAlign=middle;spacingLeft=4;spacingRight=4;fontFamily=Courier New;fontSize=12;fontStyle=0;horizontal=1;fillColor=#f8cecc;direction=west;strokeColor=#b85450;fillStyle=solid;size=9.999999999999773;" parent="1" vertex="1">
          <mxGeometry x="773.8655462184875" y="647.55" width="122.95798319327731" height="51.5" as="geometry" />
        </mxCell>
        <mxCell id="tnhIsLXUUWxpaCLOrSYH-158" value="enable service&lt;br&gt;(unter anderem) online" style="rounded=1;whiteSpace=wrap;html=1;align=center;verticalAlign=middle;spacingLeft=4;spacingRight=4;fontFamily=Courier New;fontSize=12;fontStyle=0;horizontal=1;fillColor=#97D077;strokeColor=#82b366;fillStyle=dashed;" parent="1" vertex="1">
          <mxGeometry x="783.781512605042" y="704.2" width="118.99159663865547" height="51.5" as="geometry" />
        </mxCell>
        <mxCell id="tnhIsLXUUWxpaCLOrSYH-160" value="CAN und WiFi online" style="rounded=1;whiteSpace=wrap;html=1;align=center;verticalAlign=middle;spacingLeft=4;spacingRight=4;fontFamily=Courier New;fontSize=12;fontStyle=0;horizontal=1;fillColor=#97D077;strokeColor=#82b366;fillStyle=dashed;" parent="1" vertex="1">
          <mxGeometry x="972.1848739495798" y="703.685" width="99.15966386554622" height="31.93" as="geometry" />
        </mxCell>
        <mxCell id="tnhIsLXUUWxpaCLOrSYH-176" value="&lt;div&gt;micro_ros_agent container&lt;/div&gt;" style="swimlane;fontStyle=0;childLayout=stackLayout;horizontal=1;startSize=30;horizontalStack=0;resizeParent=1;resizeParentMax=0;resizeLast=0;collapsible=1;marginBottom=0;whiteSpace=wrap;html=1;align=center;verticalAlign=middle;spacingLeft=4;spacingRight=4;fontFamily=Courier New;fontSize=12;fillColor=#F19C99;strokeColor=#b85450;fillStyle=hatch;" parent="1" vertex="1">
          <mxGeometry x="300" y="661.8" width="159.46" height="24.9" as="geometry">
            <mxRectangle x="257.81575138163373" y="175.1" width="220" height="30" as="alternateBounds" />
          </mxGeometry>
        </mxCell>
        <mxCell id="tnhIsLXUUWxpaCLOrSYH-169" value="relativsteuerung für Joystick.&lt;br&gt;auch absolutwert-steuerung gibts&amp;nbsp;" style="rounded=1;whiteSpace=wrap;html=1;align=center;verticalAlign=middle;spacingLeft=4;spacingRight=4;fontFamily=Courier New;fontSize=12;fontStyle=0;horizontal=1;fillColor=#FFB570;strokeColor=#d79b00;fillStyle=dashed;" parent="1" vertex="1">
          <mxGeometry x="53" y="420" width="137" height="60" as="geometry" />
        </mxCell>
        <mxCell id="tnhIsLXUUWxpaCLOrSYH-181" value="&lt;pre class=&quot;notranslate&quot;&gt;&lt;code&gt;rf2o_laser_odometry&lt;/code&gt;&lt;/pre&gt;" style="swimlane;fontStyle=0;childLayout=stackLayout;horizontal=1;startSize=30;horizontalStack=0;resizeParent=1;resizeParentMax=0;resizeLast=0;collapsible=1;marginBottom=0;whiteSpace=wrap;html=1;rounded=0;shadow=0;glass=0;fillStyle=dots;strokeColor=#9673a6;align=center;verticalAlign=middle;swimlaneFillColor=none;fontFamily=Courier New;fontSize=12;fillColor=#C3ABD0;container=0;" parent="1" vertex="1">
          <mxGeometry x="1140" y="250" width="150" height="60" as="geometry" />
        </mxCell>
        <mxCell id="tnhIsLXUUWxpaCLOrSYH-182" value="Odometrie mit LiDAR" style="text;strokeColor=none;fillColor=none;align=center;verticalAlign=middle;spacingLeft=4;spacingRight=4;overflow=hidden;points=[[0,0.5],[1,0.5]];portConstraint=eastwest;rotatable=0;whiteSpace=wrap;html=1;fontFamily=Courier New;fontSize=12;fontColor=default;fontStyle=0;horizontal=1;container=0;" parent="tnhIsLXUUWxpaCLOrSYH-181" vertex="1">
          <mxGeometry y="30" width="150" height="30" as="geometry" />
        </mxCell>
        <mxCell id="tnhIsLXUUWxpaCLOrSYH-185" value="&lt;div&gt;rviz2&lt;/div&gt;" style="swimlane;fontStyle=0;childLayout=stackLayout;horizontal=1;startSize=30;horizontalStack=0;resizeParent=1;resizeParentMax=0;resizeLast=0;collapsible=1;marginBottom=0;whiteSpace=wrap;html=1;rounded=0;shadow=0;glass=0;fillStyle=dots;strokeColor=#9673a6;align=center;verticalAlign=middle;swimlaneFillColor=none;fontFamily=Courier New;fontSize=12;fillColor=#C3ABD0;container=0;" parent="1" vertex="1">
          <mxGeometry x="1340" y="130" width="150" height="60" as="geometry" />
        </mxCell>
        <mxCell id="tnhIsLXUUWxpaCLOrSYH-186" value="Karte anzeigen" style="text;strokeColor=none;fillColor=none;align=center;verticalAlign=middle;spacingLeft=4;spacingRight=4;overflow=hidden;points=[[0,0.5],[1,0.5]];portConstraint=eastwest;rotatable=0;whiteSpace=wrap;html=1;fontFamily=Courier New;fontSize=12;fontColor=default;fontStyle=0;horizontal=1;container=0;" parent="tnhIsLXUUWxpaCLOrSYH-185" vertex="1">
          <mxGeometry y="30" width="150" height="30" as="geometry" />
        </mxCell>
        <mxCell id="tnhIsLXUUWxpaCLOrSYH-187" value="tf2" style="ellipse;whiteSpace=wrap;html=1;aspect=fixed;align=center;verticalAlign=middle;spacingLeft=4;spacingRight=4;fontFamily=Courier New;fontSize=12;fontStyle=0;horizontal=1;fillColor=#fff2cc;strokeColor=#d6b656;fillStyle=dots;" parent="1" vertex="1">
          <mxGeometry x="1340" y="310" width="80" height="80" as="geometry" />
        </mxCell>
        <mxCell id="tnhIsLXUUWxpaCLOrSYH-198" style="edgeStyle=orthogonalEdgeStyle;rounded=0;orthogonalLoop=1;jettySize=auto;html=1;fontFamily=Courier New;fontSize=12;fontColor=default;fontStyle=0;horizontal=1;dashed=1;flowAnimation=1;" parent="1" source="tnhIsLXUUWxpaCLOrSYH-187" target="tnhIsLXUUWxpaCLOrSYH-185" edge="1">
          <mxGeometry relative="1" as="geometry">
            <Array as="points">
              <mxPoint x="1380" y="220" />
              <mxPoint x="1380" y="220" />
            </Array>
          </mxGeometry>
        </mxCell>
        <mxCell id="tnhIsLXUUWxpaCLOrSYH-202" value="base_link" style="edgeLabel;html=1;align=center;verticalAlign=middle;resizable=0;points=[];spacingLeft=4;spacingRight=4;fontFamily=Courier New;fontSize=12;fontColor=default;fontStyle=0;horizontal=1;fillColor=none;gradientColor=none;" parent="tnhIsLXUUWxpaCLOrSYH-198" vertex="1" connectable="0">
          <mxGeometry x="-0.4738" y="-2" relative="1" as="geometry">
            <mxPoint y="-12" as="offset" />
          </mxGeometry>
        </mxCell>
        <mxCell id="tnhIsLXUUWxpaCLOrSYH-188" value="" style="endArrow=classic;html=1;rounded=0;fontFamily=Courier New;fontSize=12;fontColor=default;fontStyle=0;horizontal=1;edgeStyle=orthogonalEdgeStyle;dashed=1;flowAnimation=1;" parent="1" source="tnhIsLXUUWxpaCLOrSYH-46" target="tnhIsLXUUWxpaCLOrSYH-192" edge="1">
          <mxGeometry width="50" height="50" relative="1" as="geometry">
            <mxPoint x="1230" y="400" as="sourcePoint" />
            <mxPoint x="1110" y="189" as="targetPoint" />
            <Array as="points">
              <mxPoint x="1120" y="390" />
              <mxPoint x="1120" y="390" />
            </Array>
          </mxGeometry>
        </mxCell>
        <mxCell id="tnhIsLXUUWxpaCLOrSYH-190" value="" style="endArrow=classic;html=1;rounded=0;fontFamily=Courier New;fontSize=12;fontColor=default;fontStyle=0;horizontal=1;edgeStyle=orthogonalEdgeStyle;curved=1;dashed=1;flowAnimation=1;" parent="1" target="tnhIsLXUUWxpaCLOrSYH-181" edge="1">
          <mxGeometry width="50" height="50" relative="1" as="geometry">
            <mxPoint x="1120" y="380" as="sourcePoint" />
            <mxPoint x="1280" y="350" as="targetPoint" />
            <Array as="points">
              <mxPoint x="1120" y="340" />
              <mxPoint x="1170" y="340" />
            </Array>
          </mxGeometry>
        </mxCell>
        <mxCell id="tnhIsLXUUWxpaCLOrSYH-201" value="/scan" style="edgeLabel;html=1;align=center;verticalAlign=middle;resizable=0;points=[];spacingLeft=4;spacingRight=4;fontFamily=Courier New;fontSize=12;fontColor=default;fontStyle=0;horizontal=1;fillColor=none;gradientColor=none;" parent="tnhIsLXUUWxpaCLOrSYH-190" vertex="1" connectable="0">
          <mxGeometry x="-0.3495" relative="1" as="geometry">
            <mxPoint x="1" y="24" as="offset" />
          </mxGeometry>
        </mxCell>
        <mxCell id="tnhIsLXUUWxpaCLOrSYH-199" style="edgeStyle=orthogonalEdgeStyle;rounded=0;orthogonalLoop=1;jettySize=auto;html=1;fontFamily=Courier New;fontSize=12;fontColor=default;fontStyle=0;horizontal=1;curved=1;dashed=1;flowAnimation=1;" parent="1" source="tnhIsLXUUWxpaCLOrSYH-192" target="tnhIsLXUUWxpaCLOrSYH-185" edge="1">
          <mxGeometry relative="1" as="geometry">
            <Array as="points">
              <mxPoint x="1270" y="110" />
              <mxPoint x="1350" y="110" />
            </Array>
          </mxGeometry>
        </mxCell>
        <mxCell id="tnhIsLXUUWxpaCLOrSYH-200" value="/map" style="edgeLabel;html=1;align=center;verticalAlign=middle;resizable=0;points=[];spacingLeft=4;spacingRight=4;fontFamily=Courier New;fontSize=12;fontColor=default;fontStyle=0;horizontal=1;fillColor=none;gradientColor=none;" parent="tnhIsLXUUWxpaCLOrSYH-199" vertex="1" connectable="0">
          <mxGeometry x="0.0206" y="1" relative="1" as="geometry">
            <mxPoint as="offset" />
          </mxGeometry>
        </mxCell>
        <mxCell id="tnhIsLXUUWxpaCLOrSYH-192" value="slam_toolbox&lt;br&gt;async_slam_toolbox_node" style="swimlane;fontStyle=0;childLayout=stackLayout;horizontal=1;startSize=30;horizontalStack=0;resizeParent=1;resizeParentMax=0;resizeLast=0;collapsible=1;marginBottom=0;whiteSpace=wrap;html=1;rounded=0;shadow=0;glass=0;fillStyle=dots;strokeColor=#9673a6;align=center;verticalAlign=middle;swimlaneFillColor=none;fontFamily=Courier New;fontSize=12;fillColor=#C3ABD0;container=0;" parent="1" vertex="1">
          <mxGeometry x="1100" y="130" width="180" height="60" as="geometry" />
        </mxCell>
        <mxCell id="tnhIsLXUUWxpaCLOrSYH-193" value="Karte bauen mit LiDAR" style="text;strokeColor=none;fillColor=none;align=center;verticalAlign=middle;spacingLeft=4;spacingRight=4;overflow=hidden;points=[[0,0.5],[1,0.5]];portConstraint=eastwest;rotatable=0;whiteSpace=wrap;html=1;fontFamily=Courier New;fontSize=12;fontColor=default;fontStyle=0;horizontal=1;container=0;" parent="tnhIsLXUUWxpaCLOrSYH-192" vertex="1">
          <mxGeometry y="30" width="180" height="30" as="geometry" />
        </mxCell>
        <mxCell id="tnhIsLXUUWxpaCLOrSYH-195" style="edgeStyle=orthogonalEdgeStyle;rounded=0;orthogonalLoop=1;jettySize=auto;html=1;exitX=1;exitY=0.5;exitDx=0;exitDy=0;fontFamily=Courier New;fontSize=12;fontColor=default;fontStyle=0;horizontal=1;curved=1;dashed=1;flowAnimation=1;" parent="1" source="tnhIsLXUUWxpaCLOrSYH-182" target="tnhIsLXUUWxpaCLOrSYH-187" edge="1">
          <mxGeometry relative="1" as="geometry" />
        </mxCell>
        <mxCell id="tnhIsLXUUWxpaCLOrSYH-230" value="base_link" style="edgeLabel;html=1;align=center;verticalAlign=middle;resizable=0;points=[];spacingLeft=4;spacingRight=4;fontFamily=Courier New;fontSize=12;fontColor=default;fontStyle=0;horizontal=1;fillColor=none;gradientColor=none;" parent="tnhIsLXUUWxpaCLOrSYH-195" vertex="1" connectable="0">
          <mxGeometry x="0.0429" y="-1" relative="1" as="geometry">
            <mxPoint x="-9" y="-6" as="offset" />
          </mxGeometry>
        </mxCell>
        <mxCell id="tnhIsLXUUWxpaCLOrSYH-208" value="&lt;font style=&quot;font-size: 18px;&quot;&gt;Fahr&lt;br&gt;Gruppe&lt;/font&gt;" style="text;html=1;align=center;verticalAlign=middle;whiteSpace=wrap;rounded=0;fontFamily=Courier New;fontSize=12;fontColor=#906942;fontStyle=0;horizontal=1;" parent="1" vertex="1">
          <mxGeometry x="525" y="245" width="60" height="30" as="geometry" />
        </mxCell>
        <mxCell id="tnhIsLXUUWxpaCLOrSYH-168" value="&lt;div&gt;maximum gibt Maximalwerte für cmd_vel und rpmOverride an.&lt;/div&gt;&lt;div&gt;&quot;wie schnell kann das drehen&quot;&lt;/div&gt;" style="rounded=1;whiteSpace=wrap;html=1;align=center;verticalAlign=middle;spacingLeft=4;spacingRight=4;fontFamily=Courier New;fontSize=12;fontStyle=0;horizontal=1;fillColor=#FFB570;strokeColor=#d79b00;fillStyle=dashed;" parent="1" vertex="1">
          <mxGeometry x="340" y="390" width="220" height="40" as="geometry" />
        </mxCell>
        <mxCell id="tnhIsLXUUWxpaCLOrSYH-222" value="" style="endArrow=classic;html=1;rounded=0;fontFamily=Courier New;fontSize=12;fontColor=default;fontStyle=0;horizontal=1;strokeColor=#D79B00;" parent="1" source="tnhIsLXUUWxpaCLOrSYH-155" edge="1">
          <mxGeometry width="50" height="50" relative="1" as="geometry">
            <mxPoint x="680" y="420" as="sourcePoint" />
            <mxPoint x="711" y="374" as="targetPoint" />
          </mxGeometry>
        </mxCell>
        <mxCell id="tnhIsLXUUWxpaCLOrSYH-232" style="edgeStyle=orthogonalEdgeStyle;rounded=0;orthogonalLoop=1;jettySize=auto;html=1;fontFamily=Courier New;fontSize=12;fontColor=default;fontStyle=0;horizontal=1;curved=1;dashed=1;flowAnimation=1;" parent="1" source="tnhIsLXUUWxpaCLOrSYH-187" target="tnhIsLXUUWxpaCLOrSYH-181" edge="1">
          <mxGeometry relative="1" as="geometry">
            <mxPoint x="1300" y="287" as="sourcePoint" />
            <mxPoint x="1350" y="342" as="targetPoint" />
            <Array as="points">
              <mxPoint x="1215" y="360" />
            </Array>
          </mxGeometry>
        </mxCell>
        <mxCell id="tnhIsLXUUWxpaCLOrSYH-233" value="laser_frame" style="edgeLabel;html=1;align=center;verticalAlign=middle;resizable=0;points=[];spacingLeft=4;spacingRight=4;fontFamily=Courier New;fontSize=12;fontColor=default;fontStyle=0;horizontal=1;fillColor=none;gradientColor=none;" parent="tnhIsLXUUWxpaCLOrSYH-232" vertex="1" connectable="0">
          <mxGeometry x="0.0429" y="-1" relative="1" as="geometry">
            <mxPoint x="-16" y="-20" as="offset" />
          </mxGeometry>
        </mxCell>
        <mxCell id="tnhIsLXUUWxpaCLOrSYH-229" value="&lt;font style=&quot;font-size: 18px;&quot;&gt;Kamera&lt;br&gt;Gruppe&lt;/font&gt;" style="text;html=1;align=center;verticalAlign=middle;whiteSpace=wrap;rounded=0;fontFamily=Courier New;fontSize=12;fontColor=#72587E;fontStyle=0;horizontal=1;" parent="1" vertex="1">
          <mxGeometry x="997" y="205" width="60" height="30" as="geometry" />
        </mxCell>
        <mxCell id="tnhIsLXUUWxpaCLOrSYH-236" value="&lt;div align=&quot;center&quot;&gt;&lt;font style=&quot;font-size: 18px;&quot;&gt;Mapping&lt;/font&gt;&lt;br&gt;&lt;font style=&quot;font-size: 18px;&quot;&gt;Gruppe&lt;/font&gt;&lt;/div&gt;" style="text;html=1;align=center;verticalAlign=middle;whiteSpace=wrap;rounded=0;fontFamily=Courier New;fontSize=12;fontColor=#56587E;fontStyle=0;horizontal=1;" parent="1" vertex="1">
          <mxGeometry x="1188" y="393" width="60" height="30" as="geometry" />
        </mxCell>
        <mxCell id="tnhIsLXUUWxpaCLOrSYH-216" value="&lt;div&gt;&lt;font style=&quot;font-size: 18px;&quot;&gt;Arm&lt;/font&gt;&lt;/div&gt;&lt;div&gt;&lt;font size=&quot;3&quot;&gt;Gruppe&lt;/font&gt;&lt;/div&gt;" style="text;html=1;align=center;verticalAlign=middle;whiteSpace=wrap;rounded=0;fontFamily=Courier New;fontSize=12;fontColor=#6A5959;fontStyle=0;horizontal=1;" parent="1" vertex="1">
          <mxGeometry x="117.57" y="225" width="60" height="30" as="geometry" />
        </mxCell>
      </root>
    </mxGraphModel>
  </diagram>
</mxfile>
